<svg width="179" height="49" viewBox="0 0 179 49" fill="none" xmlns="http://www.w3.org/2000/svg">
<path d="M26.9445 24.5771C24.9943 24.3546 23.463 22.8364 23.2144 20.8862C23.2144 20.8862 23.7771 26.789 24.0389 28.7915C24.0913 29.1841 24.1436 29.5767 24.1829 29.9694C24.5755 33.1629 24.9551 36.3171 27.0099 38.5159C29.9155 41.6178 34.7843 41.7749 37.8861 38.8693C40.988 35.9637 41.1451 31.095 38.2395 27.9931C35.334 24.8912 30.6222 25.009 26.9314 24.5902L26.9445 24.5771Z" fill="url(#paint0_linear_164636_11790)"/>
<path d="M24.1827 29.9693C23.9995 28.6866 22.9917 27.7443 21.696 27.6265C17.0628 27.2208 7.9142 27.5087 3.25483 22.5483C-0.828663 18.1769 -0.606165 11.3187 3.76526 7.22212C8.13669 3.12554 14.9949 3.34803 19.0914 7.71946C22.7561 11.6328 22.9655 18.2554 23.5414 23.543C23.7508 25.4146 24.1827 29.9562 24.1827 29.9562V29.9693Z" fill="url(#paint1_linear_164636_11790)"/>
<path style="mix-blend-mode:multiply" opacity="0.2" d="M21.8398 27.6397C23.057 27.8098 24.0125 28.726 24.1826 29.9563C24.1826 29.9563 23.7507 25.4147 23.5413 23.5431C23.3712 22.0379 23.2403 20.4281 23.044 18.8052C23.2141 21.7762 22.5204 25.1529 21.8398 27.6397Z" fill="url(#paint2_linear_164636_11790)"/>
<path d="M7.71781 37.2594C7.74399 41.2643 11.0029 44.4971 15.0079 44.484C19.0129 44.4578 22.2456 41.1989 22.2325 37.1939C22.2064 33.189 18.9474 29.9562 14.9425 29.9693C10.9375 29.9955 7.70472 33.2544 7.71781 37.2594Z" fill="url(#paint3_linear_164636_11790)"/>
<path d="M25.8189 14.9703C25.8451 18.9753 29.104 22.208 33.109 22.1949C37.1139 22.1688 40.3467 18.9098 40.3336 14.9049C40.3074 10.8999 37.0485 7.66713 33.0435 7.68022C29.0386 7.70639 25.8058 10.9653 25.8189 14.9703Z" fill="url(#paint4_linear_164636_11790)"/>
<path d="M51.9184 25.3036C51.7589 25.3036 51.6259 25.2505 51.5063 25.1308C51.3867 25.0112 51.3335 24.8783 51.3335 24.7188V9.15334C51.3335 8.98053 51.3867 8.83432 51.5063 8.72798C51.6126 8.62164 51.7589 8.55518 51.9184 8.55518H57.7537C59.3621 8.55518 60.6914 8.80773 61.7415 9.29955C62.7916 9.79137 63.5758 10.5225 64.1075 11.5061C64.6392 12.4764 64.9184 13.6728 64.9317 15.0685C64.9582 15.773 64.9848 16.3977 64.9848 16.9294C64.9848 17.4611 64.9715 18.0859 64.9317 18.7771C64.9051 20.2658 64.6259 21.4887 64.1208 22.4458C63.6157 23.4161 62.8447 24.1339 61.8079 24.5991C60.7844 25.0644 59.4685 25.3036 57.8734 25.3036H51.9184ZM54.6699 22.5521H57.7537C58.6443 22.5521 59.3754 22.4192 59.9337 22.1666C60.492 21.9141 60.9041 21.502 61.1699 20.9304C61.4357 20.3589 61.5687 19.6145 61.582 18.6973C61.5953 18.2188 61.6086 17.7934 61.6218 17.4345C61.6218 17.0756 61.6218 16.7167 61.6218 16.3578C61.6218 15.9989 61.5953 15.5869 61.582 15.1216C61.5554 13.819 61.2231 12.8486 60.5983 12.2239C59.9736 11.5991 58.9899 11.2934 57.6341 11.2934H54.6699V22.5521Z" fill="white"/>
<path d="M69.3314 25.3038C69.1719 25.3038 69.039 25.2506 68.9194 25.131C68.7997 25.0113 68.7466 24.8784 68.7466 24.7189V9.12686C68.7466 8.96735 68.7997 8.83443 68.9194 8.71479C69.0257 8.60845 69.1719 8.54199 69.3314 8.54199H71.5779C71.7507 8.54199 71.8969 8.59516 71.9899 8.71479C72.0963 8.82113 72.1494 8.96735 72.1494 9.12686V24.7189C72.1494 24.8784 72.0963 25.0113 71.9899 25.131C71.8836 25.2506 71.7507 25.3038 71.5779 25.3038H69.3314Z" fill="white"/>
<path d="M83.0229 25.5431C81.5607 25.5431 80.3112 25.2906 79.2744 24.7722C78.2509 24.2671 77.4533 23.5227 76.8817 22.5523C76.3102 21.582 76.0044 20.4388 75.9646 19.0963C75.9513 18.4051 75.938 17.674 75.938 16.8765C75.938 16.0789 75.938 15.3345 75.9646 14.6433C76.0177 13.3141 76.3235 12.1842 76.8817 11.2405C77.44 10.2967 78.2509 9.57892 79.301 9.06051C80.3511 8.5554 81.5873 8.28955 83.0229 8.28955C84.1926 8.28955 85.2028 8.44906 86.0801 8.75479C86.9574 9.06051 87.6885 9.45929 88.2734 9.95111C88.8582 10.4429 89.2969 10.9613 89.5893 11.5196C89.8817 12.0779 90.0413 12.5963 90.0545 13.0748C90.0678 13.221 90.028 13.3407 89.9349 13.4337C89.8419 13.5268 89.7089 13.5799 89.5494 13.5799H87.0903C86.9308 13.5799 86.8112 13.5534 86.7314 13.4869C86.6517 13.4204 86.5852 13.3274 86.5188 13.1945C86.3858 12.8621 86.1865 12.5298 85.9206 12.1975C85.6548 11.8652 85.2826 11.5994 84.8173 11.3734C84.3521 11.1474 83.7539 11.0411 83.0229 11.0411C81.9329 11.0411 81.0689 11.3335 80.4308 11.9051C79.7795 12.4767 79.4339 13.4337 79.394 14.7497C79.3408 16.1321 79.3408 17.5411 79.394 18.9634C79.4472 20.3192 79.7928 21.2896 80.4574 21.8877C81.122 22.4726 81.986 22.7783 83.076 22.7783C83.7938 22.7783 84.4319 22.6454 85.0034 22.3928C85.575 22.1403 86.0137 21.7415 86.346 21.1965C86.6783 20.6515 86.8378 19.9603 86.8378 19.1096V18.3652H83.9134C83.7539 18.3652 83.621 18.312 83.5014 18.1924C83.395 18.0861 83.3286 17.9399 83.3286 17.7671V16.5043C83.3286 16.3315 83.3818 16.1853 83.5014 16.0789C83.621 15.9726 83.7539 15.9061 83.9134 15.9061H89.6292C89.802 15.9061 89.9482 15.9593 90.0545 16.0789C90.1609 16.1853 90.2141 16.3315 90.2141 16.5043V19.0165C90.2141 20.3591 89.9216 21.5155 89.3368 22.4859C88.7519 23.4562 87.9278 24.2139 86.8511 24.7323C85.7744 25.264 84.4983 25.5165 83.0361 25.5165L83.0229 25.5431Z" fill="white"/>
<path d="M94.4276 25.3036C94.2681 25.3036 94.1352 25.2505 94.0156 25.1308C93.8959 25.0112 93.8428 24.8783 93.8428 24.7188V9.15334C93.8428 8.98053 93.8959 8.83432 94.0156 8.72798C94.1219 8.62164 94.2681 8.55518 94.4276 8.55518H100.263C101.871 8.55518 103.201 8.80773 104.251 9.29955C105.301 9.79137 106.085 10.5225 106.617 11.5061C107.149 12.4764 107.428 13.6728 107.441 15.0685C107.468 15.773 107.494 16.3977 107.494 16.9294C107.494 17.4611 107.481 18.0859 107.441 18.7771C107.414 20.2658 107.135 21.4887 106.63 22.4458C106.125 23.4161 105.354 24.1339 104.317 24.5991C103.294 25.0644 101.978 25.3036 100.383 25.3036H94.4276ZM97.1792 22.5521H100.263C101.154 22.5521 101.885 22.4192 102.443 22.1666C103.001 21.9141 103.413 21.502 103.679 20.9304C103.945 20.3589 104.078 19.6145 104.105 18.6973C104.118 18.2188 104.131 17.7934 104.144 17.4345C104.144 17.0756 104.144 16.7167 104.144 16.3578C104.144 15.9989 104.131 15.5869 104.105 15.1216C104.078 13.819 103.746 12.8486 103.121 12.2239C102.496 11.5991 101.513 11.2934 100.157 11.2934H97.1925V22.5521H97.1792Z" fill="white"/>
<path d="M109.913 25.3036C109.78 25.3036 109.674 25.2505 109.568 25.1574C109.461 25.0644 109.408 24.9447 109.408 24.7985C109.408 24.7321 109.421 24.6656 109.461 24.5859L115.23 9.15334C115.283 8.99383 115.363 8.8609 115.509 8.74127C115.642 8.62164 115.828 8.55518 116.068 8.55518H118.673C118.912 8.55518 119.098 8.60835 119.218 8.74127C119.351 8.8609 119.444 8.99383 119.51 9.15334L125.279 24.5859C125.293 24.6656 125.306 24.7321 125.306 24.7985C125.306 24.9447 125.253 25.0644 125.16 25.1574C125.067 25.2505 124.947 25.3036 124.827 25.3036H122.741C122.515 25.3036 122.355 25.2505 122.249 25.1441C122.142 25.0378 122.076 24.9447 122.049 24.8517L120.919 21.9274H113.808L112.678 24.8517C112.652 24.9447 112.572 25.0511 112.479 25.1441C112.372 25.2505 112.213 25.3036 111.987 25.3036H109.9H109.913ZM114.645 19.1758H120.082L117.357 11.7852L114.659 19.1758H114.645Z" fill="white"/>
<path d="M131.274 25.3038C131.115 25.3038 130.982 25.2506 130.862 25.131C130.743 25.0113 130.689 24.8784 130.689 24.7189V19.3089L125.04 9.31295C125.04 9.31295 125.014 9.24649 124.987 9.19332C124.96 9.14015 124.96 9.10027 124.96 9.0471C124.96 8.90089 125.014 8.78126 125.107 8.68821C125.2 8.59516 125.319 8.54199 125.439 8.54199H127.566C127.752 8.54199 127.911 8.59516 128.031 8.68821C128.151 8.78126 128.23 8.8876 128.284 8.99393L132.351 15.9592L136.392 8.99393C136.458 8.8876 136.551 8.78126 136.671 8.68821C136.791 8.59516 136.95 8.54199 137.136 8.54199H139.237C139.383 8.54199 139.502 8.59516 139.595 8.68821C139.688 8.78126 139.742 8.90089 139.742 9.0471C139.742 9.10027 139.742 9.14015 139.742 9.19332C139.742 9.24649 139.715 9.28637 139.688 9.31295L134.039 19.3089V24.7189C134.039 24.8784 133.986 25.0113 133.866 25.131C133.76 25.2373 133.614 25.3038 133.441 25.3038H131.261H131.274Z" fill="white"/>
<path d="M139.941 25.3036C139.808 25.3036 139.701 25.2505 139.595 25.1574C139.489 25.0644 139.436 24.9447 139.436 24.7985C139.436 24.7321 139.449 24.6656 139.489 24.5859L145.258 9.15334C145.311 8.99383 145.391 8.8609 145.537 8.74127C145.67 8.62164 145.856 8.55518 146.095 8.55518H148.7C148.94 8.55518 149.126 8.60835 149.245 8.74127C149.378 8.8609 149.471 8.99383 149.538 9.15334L155.307 24.5859C155.32 24.6656 155.333 24.7321 155.333 24.7985C155.333 24.9447 155.28 25.0644 155.187 25.1574C155.094 25.2505 154.974 25.3036 154.855 25.3036H152.768C152.542 25.3036 152.382 25.2505 152.276 25.1441C152.17 25.0378 152.103 24.9447 152.077 24.8517L150.947 21.9274H143.835L142.705 24.8517C142.679 24.9447 142.599 25.0511 142.506 25.1441C142.4 25.2505 142.24 25.3036 142.014 25.3036H139.927H139.941ZM144.673 19.1758H150.109L147.384 11.7852L144.686 19.1758H144.673Z" fill="white"/>
<path d="M80.9988 41.3588C80.8882 41.3588 80.8022 41.3219 80.753 41.2605C80.6916 41.199 80.667 41.113 80.667 41.0147V31.3803C80.667 31.2697 80.6916 31.1837 80.753 31.1222C80.8145 31.0608 80.9005 31.0239 80.9988 31.0239H84.3413C85.349 31.0239 86.1724 31.1714 86.7868 31.4786C87.4012 31.7858 87.8559 32.2282 88.1386 32.8304C88.4212 33.4202 88.5687 34.1576 88.581 35.0178C88.581 35.4602 88.5933 35.8534 88.5933 36.1852C88.5933 36.517 88.5933 36.898 88.581 37.3404C88.5564 38.2497 88.4089 38.9993 88.1263 39.5892C87.8436 40.1791 87.4012 40.6215 86.7991 40.9164C86.1969 41.2113 85.3982 41.3465 84.4028 41.3465H80.9865L80.9988 41.3588ZM82.1048 40.1053H84.3413C85.0172 40.1053 85.5579 40.007 85.9635 39.8227C86.369 39.6384 86.6639 39.3311 86.836 38.9256C87.0203 38.5078 87.1186 37.9671 87.1186 37.2912C87.1432 36.9963 87.1432 36.7382 87.1432 36.517V35.8534C87.1432 35.6322 87.1432 35.3742 87.1186 35.0915C87.094 34.133 86.8728 33.4325 86.4427 32.9778C86.0126 32.5232 85.2876 32.2897 84.2553 32.2897H82.0925V40.1053H82.1048Z" fill="white"/>
<path d="M93.1399 41.5061C92.6483 41.5061 92.206 41.4078 91.8004 41.2112C91.3949 41.0146 91.0754 40.7442 90.8296 40.4124C90.5838 40.0806 90.4609 39.6997 90.4609 39.2818C90.4609 38.6059 90.7313 38.0652 91.2843 37.6597C91.8373 37.2542 92.55 36.9961 93.4348 36.8609L95.6345 36.5537V36.1236C95.6345 35.6566 95.4993 35.288 95.229 35.0176C94.9586 34.7473 94.5162 34.6244 93.9141 34.6244C93.4717 34.6244 93.1153 34.7104 92.845 34.8947C92.5746 35.0668 92.3903 35.3003 92.2797 35.5706C92.2182 35.7181 92.1199 35.7918 91.9725 35.7918H91.3089C91.1983 35.7918 91.1245 35.755 91.0631 35.6935C91.0139 35.6321 90.9771 35.5583 90.9771 35.46C90.9771 35.3126 91.0385 35.1282 91.1491 34.9193C91.2597 34.6981 91.4317 34.4892 91.6775 34.2803C91.911 34.0714 92.2182 33.8993 92.5869 33.7519C92.9556 33.6044 93.4102 33.543 93.9387 33.543C94.5285 33.543 95.0201 33.6167 95.4256 33.7765C95.8311 33.9239 96.1507 34.1328 96.3719 34.3909C96.6053 34.649 96.7651 34.9316 96.8757 35.2634C96.974 35.5829 97.0354 35.9147 97.0354 36.2465V41.0268C97.0354 41.1252 96.9986 41.2112 96.9371 41.2726C96.8757 41.3341 96.7897 41.3709 96.6914 41.3709H96.0155C95.9049 41.3709 95.8188 41.3341 95.7697 41.2726C95.7082 41.2112 95.6837 41.1252 95.6837 41.0268V40.3878C95.5608 40.5599 95.3887 40.7442 95.1675 40.9162C94.9463 41.0883 94.676 41.2357 94.3565 41.3463C94.037 41.4569 93.6314 41.5184 93.1645 41.5184L93.1399 41.5061ZM93.4471 40.4001C93.8526 40.4001 94.2213 40.3141 94.5531 40.142C94.8849 39.97 95.1553 39.6997 95.3396 39.3433C95.5362 38.9746 95.6222 38.5199 95.6222 37.9669V37.5491L93.9141 37.7949C93.2136 37.8932 92.6852 38.053 92.3411 38.2864C91.9847 38.5199 91.8127 38.8149 91.8127 39.1589C91.8127 39.4293 91.8987 39.6628 92.0585 39.8471C92.2182 40.0314 92.4271 40.1666 92.6729 40.2526C92.9187 40.3387 93.1768 40.3878 93.4471 40.3878V40.4001Z" fill="white"/>
<path d="M102.16 41.5063C101.607 41.5063 101.14 41.4326 100.747 41.2974C100.353 41.1623 100.034 40.9902 99.7882 40.7936C99.5424 40.597 99.3581 40.4004 99.2352 40.2037C99.1123 40.0071 99.0509 39.8474 99.0386 39.7368C99.0386 39.6262 99.0632 39.5401 99.1369 39.491C99.2106 39.4295 99.2966 39.405 99.3704 39.405H100.022C100.022 39.405 100.132 39.405 100.157 39.4295C100.194 39.4418 100.243 39.491 100.292 39.5524C100.415 39.6876 100.562 39.8228 100.722 39.9702C100.882 40.1054 101.079 40.216 101.3 40.3143C101.533 40.4004 101.816 40.4495 102.16 40.4495C102.664 40.4495 103.069 40.3512 103.401 40.1669C103.721 39.9702 103.893 39.6876 103.893 39.3189C103.893 39.0732 103.831 38.8765 103.696 38.7291C103.561 38.5816 103.327 38.4464 102.983 38.3358C102.639 38.213 102.185 38.0901 101.595 37.9672C101.005 37.832 100.538 37.66 100.194 37.4633C99.8496 37.2667 99.6039 37.0209 99.4564 36.7383C99.3089 36.4557 99.2352 36.1361 99.2352 35.7921C99.2352 35.448 99.3458 35.0793 99.5547 34.7352C99.7636 34.3911 100.083 34.1208 100.501 33.8996C100.919 33.6784 101.447 33.5801 102.074 33.5801C102.59 33.5801 103.02 33.6415 103.389 33.7767C103.757 33.9119 104.052 34.0593 104.286 34.256C104.519 34.4526 104.704 34.6369 104.814 34.8212C104.937 35.0056 104.999 35.1653 105.011 35.2882C105.011 35.3865 104.986 35.4726 104.925 35.534C104.851 35.5954 104.777 35.6323 104.691 35.6323H104.077C104.003 35.6323 103.954 35.62 103.905 35.5831C103.856 35.5463 103.819 35.5217 103.782 35.4848C103.684 35.362 103.573 35.2268 103.438 35.1039C103.303 34.981 103.131 34.8704 102.922 34.7844C102.713 34.6984 102.43 34.6615 102.086 34.6615C101.595 34.6615 101.226 34.7598 100.98 34.9687C100.734 35.1776 100.612 35.4357 100.612 35.7552C100.612 35.9395 100.661 36.1116 100.771 36.259C100.882 36.4065 101.091 36.5417 101.386 36.6523C101.693 36.7752 102.148 36.8981 102.737 37.0332C103.389 37.1561 103.893 37.3282 104.274 37.5494C104.642 37.7706 104.913 38.0163 105.072 38.299C105.232 38.5816 105.306 38.9134 105.306 39.2821C105.306 39.6999 105.183 40.0686 104.949 40.4126C104.704 40.7567 104.36 41.0271 103.893 41.236C103.426 41.4449 102.848 41.5432 102.16 41.5432V41.5063Z" fill="white"/>
<path d="M107.751 41.3588C107.653 41.3588 107.567 41.3219 107.506 41.2605C107.444 41.199 107.407 41.113 107.407 41.0147V31.2206C107.407 31.1222 107.444 31.0362 107.506 30.9748C107.567 30.9133 107.653 30.8765 107.751 30.8765H108.489C108.599 30.8765 108.685 30.9133 108.734 30.9748C108.784 31.0362 108.82 31.1222 108.82 31.2206V34.6614C109.091 34.3296 109.41 34.0593 109.791 33.8504C110.172 33.6414 110.664 33.5431 111.254 33.5431C111.893 33.5431 112.433 33.6783 112.888 33.961C113.343 34.2436 113.675 34.6245 113.908 35.1284C114.141 35.6199 114.252 36.1975 114.252 36.8611V41.0147C114.252 41.113 114.228 41.199 114.166 41.2605C114.105 41.3219 114.019 41.3588 113.92 41.3588H113.183C113.085 41.3588 112.999 41.3219 112.937 41.2605C112.876 41.199 112.839 41.113 112.839 41.0147V36.9348C112.839 36.2467 112.667 35.706 112.335 35.325C112.003 34.9318 111.512 34.7474 110.86 34.7474C110.246 34.7474 109.754 34.9441 109.386 35.325C109.017 35.7182 108.82 36.2467 108.82 36.9348V41.0147C108.82 41.113 108.796 41.199 108.734 41.2605C108.673 41.3219 108.587 41.3588 108.489 41.3588H107.751Z" fill="white"/>
<path d="M120.544 41.5063C119.954 41.5063 119.463 41.3957 119.07 41.1868C118.676 40.9778 118.357 40.7075 118.123 40.4003V41.0147C118.123 41.113 118.086 41.199 118.025 41.2605C117.964 41.3219 117.878 41.3588 117.779 41.3588H117.103C117.005 41.3588 116.919 41.3219 116.858 41.2605C116.796 41.199 116.759 41.113 116.759 41.0147V31.2206C116.759 31.1222 116.796 31.0362 116.858 30.9748C116.919 30.9133 117.005 30.8765 117.103 30.8765H117.816C117.927 30.8765 118.013 30.9133 118.062 30.9748C118.111 31.0362 118.148 31.1222 118.148 31.2206V34.6123C118.394 34.305 118.713 34.047 119.094 33.8504C119.475 33.6537 119.967 33.5431 120.532 33.5431C121.097 33.5431 121.552 33.6414 121.945 33.8258C122.338 34.0224 122.658 34.2805 122.904 34.6123C123.149 34.9441 123.346 35.325 123.469 35.7428C123.592 36.1606 123.666 36.603 123.678 37.07C123.678 37.2298 123.69 37.3772 123.69 37.5124C123.69 37.6476 123.69 37.7951 123.678 37.9548C123.678 38.4218 123.604 38.8765 123.469 39.2943C123.346 39.7121 123.149 40.0931 122.904 40.4249C122.658 40.7566 122.338 41.0147 121.945 41.2113C121.552 41.408 121.085 41.494 120.532 41.494L120.544 41.5063ZM120.237 40.3143C120.753 40.3143 121.146 40.2037 121.441 39.9825C121.736 39.7613 121.945 39.4663 122.068 39.11C122.191 38.7536 122.265 38.3603 122.289 37.9548C122.289 37.6722 122.289 37.3895 122.289 37.0946C122.265 36.6768 122.191 36.2958 122.068 35.9394C121.945 35.5831 121.736 35.2881 121.441 35.0669C121.146 34.8457 120.753 34.7351 120.237 34.7351C119.77 34.7351 119.389 34.8457 119.082 35.0547C118.775 35.2759 118.553 35.5462 118.394 35.878C118.246 36.2098 118.16 36.5539 118.148 36.898C118.148 37.0577 118.136 37.2421 118.136 37.4633C118.136 37.6845 118.136 37.8688 118.148 38.0285C118.172 38.3972 118.246 38.7536 118.394 39.0977C118.541 39.4417 118.762 39.7367 119.057 39.9579C119.352 40.1791 119.745 40.302 120.225 40.302L120.237 40.3143Z" fill="white"/>
<path d="M129.036 41.5062C128.286 41.5062 127.659 41.3587 127.168 41.0761C126.676 40.7934 126.283 40.4002 126.013 39.8841C125.742 39.3802 125.595 38.8027 125.57 38.1513C125.57 37.9793 125.558 37.7704 125.558 37.5123C125.558 37.2543 125.558 37.0454 125.57 36.8856C125.595 36.222 125.755 35.6444 126.025 35.1406C126.295 34.6368 126.676 34.2435 127.18 33.9609C127.684 33.6782 128.298 33.5308 129.036 33.5308C129.773 33.5308 130.388 33.6782 130.891 33.9609C131.395 34.2435 131.776 34.6368 132.047 35.1406C132.317 35.6444 132.464 36.222 132.501 36.8856C132.501 37.0454 132.514 37.2543 132.514 37.5123C132.514 37.7704 132.514 37.9916 132.501 38.1513C132.477 38.8027 132.329 39.3802 132.059 39.8841C131.789 40.3879 131.408 40.7811 130.904 41.0761C130.4 41.371 129.773 41.5062 129.036 41.5062ZM129.036 40.3756C129.65 40.3756 130.13 40.179 130.498 39.798C130.867 39.4171 131.063 38.8395 131.088 38.0899C131.088 37.9424 131.1 37.7581 131.1 37.5246C131.1 37.2911 131.1 37.1068 131.088 36.9593C131.063 36.2097 130.867 35.6444 130.498 35.2512C130.13 34.858 129.65 34.6736 129.036 34.6736C128.421 34.6736 127.942 34.8702 127.573 35.2512C127.205 35.6321 127.008 36.2097 126.996 36.9593C126.996 37.1068 126.984 37.2911 126.984 37.5246C126.984 37.7581 126.984 37.9424 126.996 38.0899C127.02 38.8395 127.205 39.4048 127.573 39.798C127.942 40.1913 128.434 40.3756 129.036 40.3756Z" fill="white"/>
<path d="M136.864 41.5061C136.372 41.5061 135.93 41.4078 135.524 41.2112C135.119 41.0146 134.799 40.7442 134.553 40.4124C134.307 40.0806 134.185 39.6997 134.185 39.2818C134.185 38.6059 134.455 38.0652 135.008 37.6597C135.561 37.2542 136.274 36.9961 137.158 36.8609L139.358 36.5537V36.1236C139.358 35.6566 139.223 35.288 138.953 35.0176C138.682 34.7473 138.24 34.6244 137.638 34.6244C137.195 34.6244 136.839 34.7104 136.569 34.8947C136.298 35.0791 136.114 35.3003 136.003 35.5706C135.942 35.7181 135.844 35.7918 135.696 35.7918H135.032C134.922 35.7918 134.848 35.755 134.787 35.6935C134.738 35.6321 134.701 35.5583 134.701 35.46C134.701 35.3126 134.762 35.1282 134.873 34.9193C134.983 34.6981 135.155 34.4892 135.401 34.2803C135.635 34.0714 135.942 33.8993 136.311 33.7519C136.679 33.6044 137.134 33.543 137.662 33.543C138.252 33.543 138.744 33.6167 139.149 33.7765C139.555 33.9362 139.874 34.1328 140.095 34.3909C140.329 34.649 140.489 34.9316 140.599 35.2634C140.698 35.5829 140.759 35.9147 140.759 36.2465V41.0268C140.759 41.1252 140.722 41.2112 140.661 41.2726C140.599 41.3341 140.513 41.3709 140.415 41.3709H139.739C139.628 41.3709 139.542 41.3341 139.493 41.2726C139.432 41.2112 139.407 41.1252 139.407 41.0268V40.3878C139.284 40.5599 139.112 40.7442 138.891 40.9162C138.67 41.0883 138.4 41.2357 138.08 41.3463C137.761 41.4569 137.355 41.5184 136.888 41.5184L136.864 41.5061ZM137.171 40.4001C137.576 40.4001 137.945 40.3141 138.277 40.142C138.609 39.97 138.879 39.6997 139.063 39.3433C139.248 38.9869 139.346 38.5199 139.346 37.9669V37.5491L137.638 37.7949C136.937 37.8932 136.409 38.053 136.065 38.2864C135.708 38.5199 135.536 38.8149 135.536 39.1589C135.536 39.4293 135.622 39.6628 135.782 39.8471C135.942 40.0314 136.151 40.1666 136.397 40.2526C136.642 40.3387 136.9 40.3878 137.171 40.3878V40.4001Z" fill="white"/>
<path d="M143.574 41.3586C143.475 41.3586 143.389 41.3218 143.328 41.2603C143.266 41.1989 143.229 41.1129 143.229 41.0145V34.0345C143.229 33.9362 143.266 33.8502 143.328 33.7887C143.389 33.715 143.475 33.6904 143.574 33.6904H144.249C144.348 33.6904 144.434 33.7273 144.495 33.7887C144.569 33.8625 144.594 33.9362 144.594 34.0345V34.6858C144.79 34.354 145.061 34.096 145.405 33.9362C145.749 33.7642 146.167 33.6904 146.646 33.6904H147.236C147.334 33.6904 147.408 33.7273 147.469 33.7887C147.531 33.8502 147.555 33.9362 147.555 34.0345V34.6367C147.555 34.735 147.531 34.8087 147.469 34.8702C147.408 34.9316 147.334 34.9562 147.236 34.9562H146.351C145.822 34.9562 145.405 35.1159 145.097 35.4231C144.79 35.7304 144.643 36.1482 144.643 36.6889V41.0268C144.643 41.1251 144.606 41.2112 144.544 41.2726C144.471 41.3341 144.397 41.3709 144.299 41.3709H143.574V41.3586Z" fill="white"/>
<path d="M151.844 41.5062C151.303 41.5062 150.836 41.4079 150.443 41.2235C150.05 41.0269 149.73 40.7689 149.472 40.4371C149.214 40.1053 149.03 39.7366 148.907 39.3065C148.784 38.8887 148.71 38.434 148.698 37.967C148.698 37.8073 148.686 37.6598 148.686 37.5246C148.686 37.3894 148.686 37.242 148.698 37.0822C148.722 36.6152 148.784 36.1729 148.907 35.755C149.03 35.3372 149.214 34.9563 149.472 34.6245C149.73 34.2927 150.05 34.0223 150.443 33.838C150.836 33.6414 151.303 33.5553 151.844 33.5553C152.421 33.5553 152.901 33.6536 153.294 33.8626C153.675 34.0715 153.994 34.3295 154.24 34.6245V31.2328C154.24 31.1344 154.277 31.0484 154.338 30.987C154.4 30.9255 154.486 30.8887 154.584 30.8887H155.297C155.395 30.8887 155.481 30.9255 155.543 30.987C155.604 31.0484 155.641 31.1344 155.641 31.2328V41.0269C155.641 41.1252 155.604 41.2113 155.543 41.2727C155.481 41.3341 155.395 41.371 155.297 41.371H154.633C154.523 41.371 154.437 41.3341 154.388 41.2727C154.326 41.2113 154.302 41.1252 154.302 41.0269V40.4125C154.056 40.732 153.736 40.9901 153.343 41.199C152.95 41.4079 152.458 41.5185 151.868 41.5185L151.844 41.5062ZM152.151 40.3142C152.643 40.3142 153.036 40.2036 153.331 39.9701C153.626 39.7366 153.847 39.454 153.994 39.1099C154.142 38.7658 154.215 38.4094 154.228 38.0407C154.228 37.881 154.24 37.6967 154.24 37.4755C154.24 37.2543 154.24 37.0699 154.228 36.9102C154.228 36.5661 154.142 36.222 153.982 35.8902C153.835 35.5584 153.601 35.2758 153.306 35.0669C153.011 34.8457 152.618 34.7474 152.151 34.7474C151.647 34.7474 151.254 34.8579 150.959 35.0791C150.664 35.3003 150.455 35.5953 150.32 35.9517C150.197 36.308 150.123 36.7013 150.099 37.1068C150.099 37.3894 150.099 37.6721 150.099 37.967C150.123 38.3848 150.197 38.7658 150.32 39.1222C150.443 39.4785 150.664 39.7735 150.959 39.9947C151.254 40.2159 151.647 40.3265 152.151 40.3265V40.3142Z" fill="white"/>
<defs>
<linearGradient id="paint0_linear_164636_11790" x1="28.0591" y1="39.8766" x2="32.934" y2="23.8215" gradientUnits="userSpaceOnUse">
<stop stop-color="#E58905"/>
<stop offset="1" stop-color="#FFC700"/>
</linearGradient>
<linearGradient id="paint1_linear_164636_11790" x1="10.8261" y1="26.4919" x2="17.1687" y2="5.60263" gradientUnits="userSpaceOnUse">
<stop stop-color="#068238"/>
<stop offset="1" stop-color="#34A853"/>
</linearGradient>
<linearGradient id="paint2_linear_164636_11790" x1="22.1267" y1="29.3214" x2="25.1307" y2="19.4278" gradientUnits="userSpaceOnUse">
<stop stop-color="#017534"/>
<stop offset="1" stop-color="#34A853"/>
</linearGradient>
<linearGradient id="paint3_linear_164636_11790" x1="22.1989" y1="37.0938" x2="7.68432" y2="37.1673" gradientUnits="userSpaceOnUse">
<stop stop-color="#067936"/>
<stop offset="1" stop-color="#32A651"/>
</linearGradient>
<linearGradient id="paint4_linear_164636_11790" x1="40.292" y1="14.8045" x2="25.7775" y2="14.878" gradientUnits="userSpaceOnUse">
<stop stop-color="#E58905"/>
<stop offset="1" stop-color="#FFC700"/>
</linearGradient>
</defs>
</svg>
