<svg width="1440" height="346" viewBox="0 0 1440 346" fill="none" xmlns="http://www.w3.org/2000/svg">
<g clip-path="url(#clip0_165043_55121)">
<rect width="1440" height="346" fill="url(#paint0_linear_165043_55121)"/>
<path d="M-120 349.549L127 307V313.724C127 338.01 109.55 358.783 85.6285 362.974L-120 399L-120 349.549Z" fill="url(#paint1_linear_165043_55121)"/>
<path d="M156.5 273.725C156.5 297.767 139.224 318.332 115.542 322.481L-89.5 358.404V309.97L156.5 267.594V273.725Z" stroke="#067936"/>
<path d="M1242.22 46.6094C1242.22 18.1842 1262.17 -6.34022 1290 -12.1319L1520 -60V6.2037L1242.22 65L1242.22 46.6094Z" fill="url(#paint2_linear_165043_55121)"/>
<path opacity="0.6" d="M1689.5 178.512L1341.5 271.848V227.173C1341.5 191.074 1365.82 159.506 1400.73 150.301L1689.5 74.1484V178.512Z" stroke="#005C2A"/>
</g>
<defs>
<linearGradient id="paint0_linear_165043_55121" x1="-6.67474e-05" y1="206.012" x2="1338.2" y2="-251.246" gradientUnits="userSpaceOnUse">
<stop stop-color="#292D32"/>
<stop offset="1" stop-color="#003317"/>
</linearGradient>
<linearGradient id="paint1_linear_165043_55121" x1="127" y1="353" x2="-120" y2="353" gradientUnits="userSpaceOnUse">
<stop stop-color="#38B75A" stop-opacity="0.3"/>
<stop offset="1" stop-color="#195128" stop-opacity="0"/>
</linearGradient>
<linearGradient id="paint2_linear_165043_55121" x1="1242.22" y1="2.49999" x2="1561.92" y2="2.87879" gradientUnits="userSpaceOnUse">
<stop stop-color="#2B9D4A"/>
<stop offset="1" stop-color="#024822"/>
</linearGradient>
<clipPath id="clip0_165043_55121">
<rect width="1440" height="346" fill="white"/>
</clipPath>
</defs>
</svg>
