<svg width="180" height="50" viewBox="0 0 180 50" fill="none" xmlns="http://www.w3.org/2000/svg">
<path d="M26.9445 24.2874C24.9943 24.0649 23.463 22.5467 23.2144 20.5966C23.2144 20.5966 23.7771 26.4993 24.0389 28.5018C24.0913 28.8944 24.1436 29.2871 24.1829 29.6797C24.5755 32.8732 24.9551 36.0274 27.0099 38.2262C29.9155 41.3281 34.7843 41.4852 37.8861 38.5796C40.988 35.6741 41.1451 30.8053 38.2395 27.7034C35.334 24.6015 30.6222 24.7193 26.9314 24.3005L26.9445 24.2874Z" fill="url(#paint0_linear_164636_11219)"/>
<path d="M24.1827 29.6797C23.9995 28.3971 22.9917 27.4547 21.696 27.3369C17.0628 26.9312 7.9142 27.2191 3.25483 22.2587C-0.828663 17.8873 -0.606165 11.0291 3.76526 6.93256C8.13669 2.83598 14.9949 3.05848 19.0914 7.42991C22.7561 11.3433 22.9655 17.9658 23.5414 23.2534C23.7508 25.125 24.1827 29.6666 24.1827 29.6666V29.6797Z" fill="url(#paint1_linear_164636_11219)"/>
<path style="mix-blend-mode:multiply" opacity="0.2" d="M21.8398 27.35C23.057 27.5202 24.0125 28.4363 24.1826 29.6666C24.1826 29.6666 23.7507 25.125 23.5413 23.2534C23.3712 21.7483 23.2403 20.1385 23.044 18.5155C23.2141 21.4865 22.5204 24.8633 21.8398 27.35Z" fill="url(#paint2_linear_164636_11219)"/>
<path d="M7.71781 36.9698C7.74399 40.9747 11.0029 44.2075 15.0079 44.1944C19.0129 44.1682 22.2456 40.9093 22.2325 36.9043C22.2064 32.8994 18.9474 29.6666 14.9425 29.6797C10.9375 29.7059 7.70472 32.9648 7.71781 36.9698Z" fill="url(#paint3_linear_164636_11219)"/>
<path d="M25.8189 14.6807C25.8451 18.6857 29.104 21.9185 33.109 21.9054C37.1139 21.8792 40.3467 18.6202 40.3336 14.6153C40.3074 10.6103 37.0485 7.37756 33.0435 7.39065C29.0386 7.41682 25.8058 10.6758 25.8189 14.6807Z" fill="url(#paint4_linear_164636_11219)"/>
<path d="M51.9184 25.0143C51.7589 25.0143 51.6259 24.9611 51.5063 24.8415C51.3867 24.7219 51.3335 24.589 51.3335 24.4294V8.864C51.3335 8.6912 51.3867 8.54498 51.5063 8.43864C51.6126 8.3323 51.7589 8.26584 51.9184 8.26584H57.7537C59.3621 8.26584 60.6914 8.5184 61.7415 9.01022C62.7916 9.50204 63.5758 10.2331 64.1075 11.2168C64.6392 12.1871 64.9184 13.3834 64.9317 14.7791C64.9582 15.4836 64.9848 16.1084 64.9848 16.6401C64.9848 17.1718 64.9715 17.7965 64.9317 18.4877C64.9051 19.9765 64.6259 21.1994 64.1208 22.1564C63.6157 23.1268 62.8447 23.8446 61.8079 24.3098C60.7844 24.775 59.4685 25.0143 57.8734 25.0143H51.9184ZM54.6699 22.2628H57.7537C58.6443 22.2628 59.3754 22.1299 59.9337 21.8773C60.492 21.6247 60.9041 21.2127 61.1699 20.6411C61.4357 20.0695 61.5687 19.3251 61.582 18.408C61.5953 17.9294 61.6086 17.5041 61.6218 17.1452C61.6218 16.7863 61.6218 16.4274 61.6218 16.0685C61.6218 15.7096 61.5953 15.2975 61.582 14.8323C61.5554 13.5296 61.2231 12.5593 60.5983 11.9346C59.9736 11.3098 58.9899 11.0041 57.6341 11.0041H54.6699V22.2628Z" fill="#292D32"/>
<path d="M69.3314 25.0143C69.1719 25.0143 69.039 24.9612 68.9194 24.8415C68.7997 24.7219 68.7466 24.589 68.7466 24.4295V8.83743C68.7466 8.67792 68.7997 8.545 68.9194 8.42537C69.0257 8.31903 69.1719 8.25257 69.3314 8.25257H71.5779C71.7507 8.25257 71.8969 8.30574 71.9899 8.42537C72.0963 8.53171 72.1494 8.67792 72.1494 8.83743V24.4295C72.1494 24.589 72.0963 24.7219 71.9899 24.8415C71.8836 24.9612 71.7507 25.0143 71.5779 25.0143H69.3314Z" fill="#292D32"/>
<path d="M83.0229 25.2536C81.5607 25.2536 80.3112 25.001 79.2744 24.4826C78.2509 23.9775 77.4533 23.2331 76.8817 22.2628C76.3102 21.2924 76.0044 20.1493 75.9646 18.8068C75.9513 18.1155 75.938 17.3845 75.938 16.5869C75.938 15.7894 75.938 15.045 75.9646 14.3538C76.0177 13.0245 76.3235 11.8947 76.8817 10.9509C77.44 10.0072 78.2509 9.28937 79.301 8.77096C80.3511 8.26585 81.5873 8 83.0229 8C84.1926 8 85.2028 8.15951 86.0801 8.46524C86.9574 8.77096 87.6885 9.16973 88.2734 9.66155C88.8582 10.1534 89.2969 10.6718 89.5893 11.2301C89.8817 11.7883 90.0413 12.3067 90.0545 12.7853C90.0678 12.9315 90.028 13.0511 89.9349 13.1442C89.8419 13.2372 89.7089 13.2904 89.5494 13.2904H87.0903C86.9308 13.2904 86.8112 13.2638 86.7314 13.1973C86.6517 13.1309 86.5852 13.0378 86.5188 12.9049C86.3858 12.5726 86.1865 12.2403 85.9206 11.908C85.6548 11.5757 85.2826 11.3098 84.8173 11.0838C84.3521 10.8579 83.7539 10.7515 83.0229 10.7515C81.9329 10.7515 81.0689 11.044 80.4308 11.6155C79.7795 12.1871 79.4339 13.1442 79.394 14.4601C79.3408 15.8425 79.3408 17.2515 79.394 18.6738C79.4472 20.0297 79.7928 21 80.4574 21.5982C81.122 22.183 81.986 22.4888 83.076 22.4888C83.7938 22.4888 84.4319 22.3558 85.0034 22.1033C85.575 21.8507 86.0137 21.4519 86.346 20.907C86.6783 20.362 86.8378 19.6708 86.8378 18.82V18.0757H83.9134C83.7539 18.0757 83.621 18.0225 83.5014 17.9029C83.395 17.7965 83.3286 17.6503 83.3286 17.4775V16.2147C83.3286 16.0419 83.3818 15.8957 83.5014 15.7894C83.621 15.683 83.7539 15.6166 83.9134 15.6166H89.6292C89.802 15.6166 89.9482 15.6697 90.0545 15.7894C90.1609 15.8957 90.2141 16.0419 90.2141 16.2147V18.727C90.2141 20.0695 89.9216 21.226 89.3368 22.1963C88.7519 23.1667 87.9278 23.9243 86.8511 24.4427C85.7744 24.9744 84.4983 25.227 83.0361 25.227L83.0229 25.2536Z" fill="#292D32"/>
<path d="M94.4276 25.0143C94.2681 25.0143 94.1352 24.9611 94.0156 24.8415C93.8959 24.7219 93.8428 24.589 93.8428 24.4294V8.864C93.8428 8.6912 93.8959 8.54498 94.0156 8.43864C94.1219 8.3323 94.2681 8.26584 94.4276 8.26584H100.263C101.871 8.26584 103.201 8.5184 104.251 9.01022C105.301 9.50204 106.085 10.2331 106.617 11.2168C107.149 12.1871 107.428 13.3834 107.441 14.7791C107.468 15.4836 107.494 16.1084 107.494 16.6401C107.494 17.1718 107.481 17.7965 107.441 18.4877C107.414 19.9765 107.135 21.1994 106.63 22.1564C106.125 23.1268 105.354 23.8446 104.317 24.3098C103.294 24.775 101.978 25.0143 100.383 25.0143H94.4276ZM97.1792 22.2628H100.263C101.154 22.2628 101.885 22.1299 102.443 21.8773C103.001 21.6247 103.413 21.2127 103.679 20.6411C103.945 20.0695 104.078 19.3251 104.105 18.408C104.118 17.9294 104.131 17.5041 104.144 17.1452C104.144 16.7863 104.144 16.4274 104.144 16.0685C104.144 15.7096 104.131 15.2975 104.105 14.8323C104.078 13.5296 103.746 12.5593 103.121 11.9346C102.496 11.3098 101.513 11.0041 100.157 11.0041H97.1925V22.2628H97.1792Z" fill="#292D32"/>
<path d="M109.913 25.0143C109.78 25.0143 109.674 24.9611 109.568 24.8681C109.461 24.775 109.408 24.6554 109.408 24.5092C109.408 24.4427 109.421 24.3763 109.461 24.2965L115.23 8.864C115.283 8.70449 115.363 8.57157 115.509 8.45193C115.642 8.3323 115.828 8.26584 116.068 8.26584H118.673C118.912 8.26584 119.098 8.31901 119.218 8.45193C119.351 8.57157 119.444 8.70449 119.51 8.864L125.279 24.2965C125.293 24.3763 125.306 24.4427 125.306 24.5092C125.306 24.6554 125.253 24.775 125.16 24.8681C125.067 24.9611 124.947 25.0143 124.827 25.0143H122.741C122.515 25.0143 122.355 24.9611 122.249 24.8548C122.142 24.7485 122.076 24.6554 122.049 24.5624L120.919 21.638H113.808L112.678 24.5624C112.652 24.6554 112.572 24.7618 112.479 24.8548C112.372 24.9611 112.213 25.0143 111.987 25.0143H109.9H109.913ZM114.645 18.8865H120.082L117.357 11.4959L114.659 18.8865H114.645Z" fill="#292D32"/>
<path d="M131.274 25.0143C131.114 25.0143 130.981 24.9612 130.862 24.8415C130.742 24.7219 130.689 24.589 130.689 24.4295V19.0194L125.04 9.02353C125.04 9.02353 125.013 8.95706 124.987 8.90389C124.96 8.85072 124.96 8.81085 124.96 8.75768C124.96 8.61146 125.013 8.49183 125.106 8.39878C125.199 8.30574 125.319 8.25257 125.438 8.25257H127.565C127.751 8.25257 127.911 8.30574 128.031 8.39878C128.15 8.49183 128.23 8.59817 128.283 8.70451L132.351 15.6697L136.391 8.70451C136.458 8.59817 136.551 8.49183 136.671 8.39878C136.79 8.30574 136.95 8.25257 137.136 8.25257H139.236C139.382 8.25257 139.502 8.30574 139.595 8.39878C139.688 8.49183 139.741 8.61146 139.741 8.75768C139.741 8.81085 139.741 8.85072 139.741 8.90389C139.741 8.95706 139.715 8.99694 139.688 9.02353L134.039 19.0194V24.4295C134.039 24.589 133.986 24.7219 133.866 24.8415C133.76 24.9479 133.613 25.0143 133.441 25.0143H131.261H131.274Z" fill="#292D32"/>
<path d="M139.941 25.0143C139.808 25.0143 139.701 24.9611 139.595 24.8681C139.489 24.775 139.436 24.6554 139.436 24.5092C139.436 24.4427 139.449 24.3763 139.489 24.2965L145.258 8.864C145.311 8.70449 145.391 8.57157 145.537 8.45193C145.67 8.3323 145.856 8.26584 146.095 8.26584H148.7C148.94 8.26584 149.126 8.31901 149.245 8.45193C149.378 8.57157 149.471 8.70449 149.538 8.864L155.307 24.2965C155.32 24.3763 155.333 24.4427 155.333 24.5092C155.333 24.6554 155.28 24.775 155.187 24.8681C155.094 24.9611 154.974 25.0143 154.855 25.0143H152.768C152.542 25.0143 152.382 24.9611 152.276 24.8548C152.17 24.7485 152.103 24.6554 152.077 24.5624L150.947 21.638H143.835L142.705 24.5624C142.679 24.6554 142.599 24.7618 142.506 24.8548C142.4 24.9611 142.24 25.0143 142.014 25.0143H139.927H139.941ZM144.673 18.8865H150.109L147.384 11.4959L144.686 18.8865H144.673Z" fill="#292D32"/>
<path d="M80.9988 41.0693C80.8882 41.0693 80.8022 41.0324 80.753 40.9709C80.6916 40.9095 80.667 40.8235 80.667 40.7252V31.0908C80.667 30.9802 80.6916 30.8941 80.753 30.8327C80.8145 30.7713 80.9005 30.7344 80.9988 30.7344H84.3413C85.349 30.7344 86.1724 30.8819 86.7868 31.1891C87.4012 31.4963 87.8559 31.9387 88.1386 32.5408C88.4212 33.1307 88.5687 33.868 88.581 34.7282C88.581 35.1706 88.5933 35.5639 88.5933 35.8957C88.5933 36.2275 88.5933 36.6084 88.581 37.0508C88.5564 37.9602 88.4089 38.7098 88.1263 39.2997C87.8436 39.8895 87.4012 40.3319 86.7991 40.6269C86.1969 40.9218 85.3982 41.057 84.4028 41.057H80.9865L80.9988 41.0693ZM82.1048 39.8158H84.3413C85.0172 39.8158 85.5579 39.7175 85.9635 39.5332C86.369 39.3488 86.6639 39.0416 86.836 38.6361C87.0203 38.2183 87.1186 37.6776 87.1186 37.0017C87.1432 36.7067 87.1432 36.4487 87.1432 36.2275V35.5639C87.1432 35.3427 87.1432 35.0846 87.1186 34.802C87.094 33.8434 86.8728 33.143 86.4427 32.6883C86.0126 32.2336 85.2876 32.0001 84.2553 32.0001H82.0925V39.8158H82.1048Z" fill="#292D32"/>
<path d="M93.1399 41.2167C92.6483 41.2167 92.206 41.1184 91.8004 40.9218C91.3949 40.7252 91.0754 40.4548 90.8296 40.123C90.5838 39.7912 90.4609 39.4103 90.4609 38.9924C90.4609 38.3166 90.7313 37.7759 91.2843 37.3703C91.8373 36.9648 92.55 36.7067 93.4348 36.5716L95.6345 36.2643V35.8342C95.6345 35.3673 95.4993 34.9986 95.229 34.7282C94.9586 34.4579 94.5162 34.335 93.9141 34.335C93.4717 34.335 93.1153 34.421 92.845 34.6053C92.5746 34.7774 92.3903 35.0109 92.2797 35.2812C92.2182 35.4287 92.1199 35.5024 91.9725 35.5024H91.3089C91.1983 35.5024 91.1245 35.4656 91.0631 35.4041C91.0139 35.3427 90.9771 35.2689 90.9771 35.1706C90.9771 35.0232 91.0385 34.8388 91.1491 34.6299C91.2597 34.4087 91.4317 34.1998 91.6775 33.9909C91.911 33.782 92.2182 33.61 92.5869 33.4625C92.9556 33.315 93.4102 33.2536 93.9387 33.2536C94.5285 33.2536 95.0201 33.3273 95.4256 33.4871C95.8311 33.6345 96.1507 33.8434 96.3719 34.1015C96.6053 34.3596 96.7651 34.6422 96.8757 34.974C96.974 35.2935 97.0354 35.6253 97.0354 35.9571V40.7375C97.0354 40.8358 96.9986 40.9218 96.9371 40.9832C96.8757 41.0447 96.7897 41.0815 96.6914 41.0815H96.0155C95.9049 41.0815 95.8188 41.0447 95.7697 40.9832C95.7082 40.9218 95.6837 40.8358 95.6837 40.7375V40.0984C95.5608 40.2705 95.3887 40.4548 95.1675 40.6269C94.9463 40.7989 94.676 40.9464 94.3565 41.057C94.037 41.1676 93.6314 41.229 93.1645 41.229L93.1399 41.2167ZM93.4471 40.1107C93.8526 40.1107 94.2213 40.0247 94.5531 39.8527C94.8849 39.6806 95.1553 39.4103 95.3396 39.0539C95.5362 38.6852 95.6222 38.2305 95.6222 37.6775V37.2597L93.9141 37.5055C93.2136 37.6038 92.6852 37.7636 92.3411 37.9971C91.9847 38.2305 91.8127 38.5255 91.8127 38.8696C91.8127 39.1399 91.8987 39.3734 92.0585 39.5577C92.2182 39.7421 92.4271 39.8772 92.6729 39.9633C92.9187 40.0493 93.1768 40.0984 93.4471 40.0984V40.1107Z" fill="#292D32"/>
<path d="M102.16 41.2167C101.607 41.2167 101.14 41.143 100.747 41.0078C100.353 40.8726 100.034 40.7006 99.7882 40.504C99.5424 40.3073 99.3581 40.1107 99.2352 39.9141C99.1123 39.7175 99.0509 39.5577 99.0386 39.4471C99.0386 39.3365 99.0632 39.2505 99.1369 39.2014C99.2106 39.1399 99.2966 39.1153 99.3704 39.1153H100.022C100.022 39.1153 100.132 39.1153 100.157 39.1399C100.194 39.1522 100.243 39.2014 100.292 39.2628C100.415 39.398 100.562 39.5332 100.722 39.6806C100.882 39.8158 101.079 39.9264 101.3 40.0247C101.533 40.1107 101.816 40.1599 102.16 40.1599C102.664 40.1599 103.069 40.0616 103.401 39.8772C103.721 39.6806 103.893 39.398 103.893 39.0293C103.893 38.7835 103.831 38.5869 103.696 38.4394C103.561 38.292 103.327 38.1568 102.983 38.0462C102.639 37.9233 102.185 37.8004 101.595 37.6775C101.005 37.5424 100.538 37.3703 100.194 37.1737C99.8496 36.9771 99.6039 36.7313 99.4564 36.4487C99.3089 36.166 99.2352 35.8465 99.2352 35.5024C99.2352 35.1583 99.3458 34.7897 99.5547 34.4456C99.7636 34.1015 100.083 33.8312 100.501 33.61C100.919 33.3888 101.447 33.2904 102.074 33.2904C102.59 33.2904 103.02 33.3519 103.389 33.4871C103.757 33.6222 104.052 33.7697 104.286 33.9663C104.519 34.163 104.704 34.3473 104.814 34.5316C104.937 34.7159 104.999 34.8757 105.011 34.9986C105.011 35.0969 104.986 35.1829 104.925 35.2444C104.851 35.3058 104.777 35.3427 104.691 35.3427H104.077C104.003 35.3427 103.954 35.3304 103.905 35.2935C103.856 35.2567 103.819 35.2321 103.782 35.1952C103.684 35.0723 103.573 34.9371 103.438 34.8143C103.303 34.6914 103.131 34.5808 102.922 34.4947C102.713 34.4087 102.43 34.3719 102.086 34.3719C101.595 34.3719 101.226 34.4702 100.98 34.6791C100.734 34.888 100.612 35.1461 100.612 35.4656C100.612 35.6499 100.661 35.8219 100.771 35.9694C100.882 36.1169 101.091 36.252 101.386 36.3626C101.693 36.4855 102.148 36.6084 102.737 36.7436C103.389 36.8665 103.893 37.0385 104.274 37.2597C104.642 37.4809 104.913 37.7267 105.072 38.0093C105.232 38.292 105.306 38.6238 105.306 38.9924C105.306 39.4103 105.183 39.7789 104.949 40.123C104.704 40.4671 104.36 40.7375 103.893 40.9464C103.426 41.1553 102.848 41.2536 102.16 41.2536V41.2167Z" fill="#292D32"/>
<path d="M107.751 41.0692C107.653 41.0692 107.567 41.0324 107.506 40.9709C107.444 40.9095 107.407 40.8235 107.407 40.7252V30.931C107.407 30.8327 107.444 30.7467 107.506 30.6852C107.567 30.6238 107.653 30.5869 107.751 30.5869H108.489C108.599 30.5869 108.685 30.6238 108.734 30.6852C108.784 30.7467 108.82 30.8327 108.82 30.931V34.3719C109.091 34.0401 109.41 33.7697 109.791 33.5608C110.172 33.3519 110.664 33.2536 111.254 33.2536C111.893 33.2536 112.433 33.3888 112.888 33.6714C113.343 33.954 113.675 34.335 113.908 34.8388C114.141 35.3304 114.252 35.908 114.252 36.5716V40.7252C114.252 40.8235 114.228 40.9095 114.166 40.9709C114.105 41.0324 114.019 41.0692 113.92 41.0692H113.183C113.085 41.0692 112.999 41.0324 112.937 40.9709C112.876 40.9095 112.839 40.8235 112.839 40.7252V36.6453C112.839 35.9571 112.667 35.4164 112.335 35.0355C112.003 34.6422 111.512 34.4579 110.86 34.4579C110.246 34.4579 109.754 34.6545 109.386 35.0355C109.017 35.4287 108.82 35.9571 108.82 36.6453V40.7252C108.82 40.8235 108.796 40.9095 108.734 40.9709C108.673 41.0324 108.587 41.0692 108.489 41.0692H107.751Z" fill="#292D32"/>
<path d="M120.544 41.2167C119.954 41.2167 119.462 41.1061 119.069 40.8972C118.676 40.6883 118.356 40.4179 118.123 40.1107V40.7252C118.123 40.8235 118.086 40.9095 118.025 40.9709C117.963 41.0324 117.877 41.0692 117.779 41.0692H117.103C117.005 41.0692 116.919 41.0324 116.857 40.9709C116.796 40.9095 116.759 40.8235 116.759 40.7252V30.931C116.759 30.8327 116.796 30.7467 116.857 30.6852C116.919 30.6238 117.005 30.5869 117.103 30.5869H117.816C117.926 30.5869 118.012 30.6238 118.061 30.6852C118.111 30.7467 118.147 30.8327 118.147 30.931V34.3227C118.393 34.0155 118.713 33.7574 119.094 33.5608C119.475 33.3642 119.966 33.2536 120.531 33.2536C121.097 33.2536 121.551 33.3519 121.945 33.5362C122.338 33.7328 122.657 33.9909 122.903 34.3227C123.149 34.6545 123.346 35.0355 123.468 35.4533C123.591 35.8711 123.665 36.3135 123.677 36.7805C123.677 36.9402 123.69 37.0877 123.69 37.2229C123.69 37.358 123.69 37.5055 123.677 37.6653C123.677 38.1322 123.604 38.5869 123.468 39.0047C123.346 39.4226 123.149 39.8035 122.903 40.1353C122.657 40.4671 122.338 40.7252 121.945 40.9218C121.551 41.1184 121.084 41.2044 120.531 41.2044L120.544 41.2167ZM120.237 40.0247C120.753 40.0247 121.146 39.9141 121.441 39.6929C121.736 39.4717 121.945 39.1768 122.068 38.8204C122.19 38.464 122.264 38.0708 122.289 37.6653C122.289 37.3826 122.289 37.1 122.289 36.805C122.264 36.3872 122.19 36.0063 122.068 35.6499C121.945 35.2935 121.736 34.9986 121.441 34.7774C121.146 34.5562 120.753 34.4456 120.237 34.4456C119.77 34.4456 119.389 34.5562 119.081 34.7651C118.774 34.9863 118.553 35.2567 118.393 35.5885C118.246 35.9202 118.16 36.2643 118.147 36.6084C118.147 36.7682 118.135 36.9525 118.135 37.1737C118.135 37.3949 118.135 37.5792 118.147 37.739C118.172 38.1077 118.246 38.464 118.393 38.8081C118.541 39.1522 118.762 39.4471 119.057 39.6683C119.352 39.8895 119.745 40.0124 120.224 40.0124L120.237 40.0247Z" fill="#292D32"/>
<path d="M129.035 41.2167C128.286 41.2167 127.659 41.0692 127.167 40.7866C126.676 40.504 126.283 40.1107 126.012 39.5946C125.742 39.0908 125.594 38.5132 125.57 37.8619C125.57 37.6898 125.558 37.4809 125.558 37.2229C125.558 36.9648 125.558 36.7559 125.57 36.5961C125.594 35.9325 125.754 35.355 126.025 34.8511C126.295 34.3473 126.676 33.954 127.18 33.6714C127.684 33.3888 128.298 33.2413 129.035 33.2413C129.773 33.2413 130.387 33.3888 130.891 33.6714C131.395 33.954 131.776 34.3473 132.046 34.8511C132.316 35.355 132.464 35.9325 132.501 36.5961C132.501 36.7559 132.513 36.9648 132.513 37.2229C132.513 37.4809 132.513 37.7021 132.501 37.8619C132.476 38.5132 132.329 39.0908 132.058 39.5946C131.788 40.0984 131.407 40.4917 130.903 40.7866C130.399 41.0815 129.773 41.2167 129.035 41.2167ZM129.035 40.0861C129.65 40.0861 130.129 39.8895 130.498 39.5086C130.866 39.1276 131.063 38.55 131.088 37.8004C131.088 37.653 131.1 37.4686 131.1 37.2351C131.1 37.0017 131.1 36.8173 131.088 36.6699C131.063 35.9202 130.866 35.355 130.498 34.9617C130.129 34.5685 129.65 34.3841 129.035 34.3841C128.421 34.3841 127.942 34.5808 127.573 34.9617C127.204 35.3427 127.008 35.9202 126.995 36.6699C126.995 36.8173 126.983 37.0017 126.983 37.2351C126.983 37.4686 126.983 37.653 126.995 37.8004C127.02 38.55 127.204 39.1153 127.573 39.5086C127.942 39.9018 128.433 40.0861 129.035 40.0861Z" fill="#292D32"/>
<path d="M136.864 41.2167C136.372 41.2167 135.93 41.1184 135.524 40.9218C135.119 40.7252 134.799 40.4548 134.553 40.123C134.307 39.7912 134.185 39.4103 134.185 38.9924C134.185 38.3166 134.455 37.7759 135.008 37.3703C135.561 36.9648 136.274 36.7067 137.158 36.5716L139.358 36.2643V35.8342C139.358 35.3673 139.223 34.9986 138.953 34.7282C138.682 34.4579 138.24 34.335 137.638 34.335C137.195 34.335 136.839 34.421 136.569 34.6053C136.298 34.7897 136.114 35.0109 136.003 35.2812C135.942 35.4287 135.844 35.5024 135.696 35.5024H135.032C134.922 35.5024 134.848 35.4656 134.787 35.4041C134.738 35.3427 134.701 35.2689 134.701 35.1706C134.701 35.0232 134.762 34.8388 134.873 34.6299C134.983 34.4087 135.155 34.1998 135.401 33.9909C135.635 33.782 135.942 33.61 136.311 33.4625C136.679 33.315 137.134 33.2536 137.662 33.2536C138.252 33.2536 138.744 33.3273 139.149 33.4871C139.555 33.6468 139.874 33.8434 140.095 34.1015C140.329 34.3596 140.489 34.6422 140.599 34.974C140.698 35.2935 140.759 35.6253 140.759 35.9571V40.7375C140.759 40.8358 140.722 40.9218 140.661 40.9832C140.599 41.0447 140.513 41.0815 140.415 41.0815H139.739C139.628 41.0815 139.542 41.0447 139.493 40.9832C139.432 40.9218 139.407 40.8358 139.407 40.7375V40.0984C139.284 40.2705 139.112 40.4548 138.891 40.6269C138.67 40.7989 138.4 40.9464 138.08 41.057C137.761 41.1676 137.355 41.229 136.888 41.229L136.864 41.2167ZM137.171 40.1107C137.576 40.1107 137.945 40.0247 138.277 39.8527C138.609 39.6806 138.879 39.4103 139.063 39.0539C139.248 38.6975 139.346 38.2305 139.346 37.6775V37.2597L137.638 37.5055C136.937 37.6038 136.409 37.7636 136.065 37.9971C135.708 38.2305 135.536 38.5255 135.536 38.8696C135.536 39.1399 135.622 39.3734 135.782 39.5577C135.942 39.7421 136.151 39.8772 136.397 39.9633C136.642 40.0493 136.9 40.0984 137.171 40.0984V40.1107Z" fill="#292D32"/>
<path d="M143.574 41.0692C143.475 41.0692 143.389 41.0324 143.328 40.9709C143.266 40.9095 143.229 40.8235 143.229 40.7252V33.7451C143.229 33.6468 143.266 33.5608 143.328 33.4994C143.389 33.4256 143.475 33.401 143.574 33.401H144.249C144.348 33.401 144.434 33.4379 144.495 33.4994C144.569 33.5731 144.594 33.6468 144.594 33.7451V34.3964C144.79 34.0646 145.061 33.8066 145.405 33.6468C145.749 33.4748 146.167 33.401 146.646 33.401H147.236C147.334 33.401 147.408 33.4379 147.469 33.4994C147.531 33.5608 147.555 33.6468 147.555 33.7451V34.3473C147.555 34.4456 147.531 34.5193 147.469 34.5808C147.408 34.6422 147.334 34.6668 147.236 34.6668H146.351C145.822 34.6668 145.405 34.8265 145.097 35.1338C144.79 35.441 144.643 35.8588 144.643 36.3995V40.7374C144.643 40.8358 144.606 40.9218 144.544 40.9832C144.471 41.0447 144.397 41.0815 144.299 41.0815H143.574V41.0692Z" fill="#292D32"/>
<path d="M151.844 41.2167C151.303 41.2167 150.836 41.1184 150.443 40.9341C150.05 40.7374 149.73 40.4794 149.472 40.1476C149.214 39.8158 149.03 39.4471 148.907 39.017C148.784 38.5992 148.71 38.1445 148.698 37.6775C148.698 37.5178 148.686 37.3703 148.686 37.2351C148.686 37.1 148.686 36.9525 148.698 36.7928C148.722 36.3258 148.784 35.8834 148.907 35.4656C149.03 35.0477 149.214 34.6668 149.472 34.335C149.73 34.0032 150.05 33.7328 150.443 33.5485C150.836 33.3519 151.303 33.2659 151.844 33.2659C152.421 33.2659 152.901 33.3642 153.294 33.5731C153.675 33.782 153.994 34.0401 154.24 34.335V30.9433C154.24 30.845 154.277 30.759 154.338 30.6975C154.4 30.6361 154.486 30.5992 154.584 30.5992H155.297C155.395 30.5992 155.481 30.6361 155.543 30.6975C155.604 30.759 155.641 30.845 155.641 30.9433V40.7374C155.641 40.8358 155.604 40.9218 155.543 40.9832C155.481 41.0447 155.395 41.0815 155.297 41.0815H154.633C154.523 41.0815 154.437 41.0447 154.388 40.9832C154.326 40.9218 154.302 40.8358 154.302 40.7374V40.123C154.056 40.4425 153.736 40.7006 153.343 40.9095C152.95 41.1184 152.458 41.229 151.868 41.229L151.844 41.2167ZM152.151 40.0247C152.643 40.0247 153.036 39.9141 153.331 39.6806C153.626 39.4471 153.847 39.1645 153.994 38.8204C154.142 38.4763 154.215 38.1199 154.228 37.7513C154.228 37.5915 154.24 37.4072 154.24 37.186C154.24 36.9648 154.24 36.7805 154.228 36.6207C154.228 36.2766 154.142 35.9325 153.982 35.6007C153.835 35.2689 153.601 34.9863 153.306 34.7774C153.011 34.5562 152.618 34.4579 152.151 34.4579C151.647 34.4579 151.254 34.5685 150.959 34.7897C150.664 35.0109 150.455 35.3058 150.32 35.6622C150.197 36.0186 150.123 36.4118 150.099 36.8173C150.099 37.1 150.099 37.3826 150.099 37.6775C150.123 38.0954 150.197 38.4763 150.32 38.8327C150.443 39.1891 150.664 39.484 150.959 39.7052C151.254 39.9264 151.647 40.037 152.151 40.037V40.0247Z" fill="#292D32"/>
<defs>
<linearGradient id="paint0_linear_164636_11219" x1="28.0591" y1="39.587" x2="32.934" y2="23.5318" gradientUnits="userSpaceOnUse">
<stop stop-color="#E58905"/>
<stop offset="1" stop-color="#FFC700"/>
</linearGradient>
<linearGradient id="paint1_linear_164636_11219" x1="10.8261" y1="26.2024" x2="17.1687" y2="5.31308" gradientUnits="userSpaceOnUse">
<stop stop-color="#068238"/>
<stop offset="1" stop-color="#34A853"/>
</linearGradient>
<linearGradient id="paint2_linear_164636_11219" x1="22.1267" y1="29.0318" x2="25.1307" y2="19.1382" gradientUnits="userSpaceOnUse">
<stop stop-color="#017534"/>
<stop offset="1" stop-color="#34A853"/>
</linearGradient>
<linearGradient id="paint3_linear_164636_11219" x1="22.1989" y1="36.8042" x2="7.68432" y2="36.8777" gradientUnits="userSpaceOnUse">
<stop stop-color="#067936"/>
<stop offset="1" stop-color="#32A651"/>
</linearGradient>
<linearGradient id="paint4_linear_164636_11219" x1="40.292" y1="14.5149" x2="25.7775" y2="14.5884" gradientUnits="userSpaceOnUse">
<stop stop-color="#E58905"/>
<stop offset="1" stop-color="#FFC700"/>
</linearGradient>
</defs>
</svg>
