<svg width="165" height="50" viewBox="0 0 165 50" fill="none" xmlns="http://www.w3.org/2000/svg">
<path d="M23.9821 4.00008C25.649 6.3137 25.992 9.13524 25.1155 11.401C24.6887 12.5095 23.9691 13.4894 22.9767 14.2071L17.5643 18.1051C17.5643 18.1051 8.82489 23.1005 11.1825 29.7057C6.87281 23.708 7.65606 15.7574 12.9362 11.9427L23.9821 4.00008Z" fill="url(#paint0_linear_164836_22450)"/>
<path d="M26.5759 4.00008C24.909 6.3137 24.566 9.13524 25.4424 11.401C25.8693 12.5095 26.5888 13.4894 27.5813 14.2071L32.9937 18.1051C32.9937 18.1051 41.7331 23.1005 39.3755 29.7057C43.6852 23.708 42.9019 15.7574 37.6218 11.9427L26.5759 4.00008Z" fill="url(#paint1_linear_164836_22450)"/>
<path d="M25.6694 42.0217C24.8173 39.6806 25.3468 37.168 26.8438 35.3843C27.5752 34.5105 28.5462 33.8178 29.6889 33.4019L35.911 31.1373C35.911 31.1373 45.5716 28.6074 45.3576 22.4043C47.569 28.4801 44.4358 35.1992 38.367 37.4081L25.6789 42.0262L25.6694 42.0217Z" fill="url(#paint2_linear_164836_22450)"/>
<path d="M24.6926 42.0217C25.5447 39.6806 25.0152 37.168 23.5181 35.3843C22.7867 34.5105 21.8158 33.8178 20.6731 33.4019L14.4509 31.1373C14.4509 31.1373 4.79032 28.6074 5.00437 22.4043C2.79296 28.4801 5.92613 35.1992 11.995 37.4081L24.683 42.0262L24.6926 42.0217Z" fill="url(#paint3_linear_164836_22450)"/>
<path d="M25.6694 46.052C24.8173 43.7109 25.3468 41.1983 26.8438 39.4146C27.5752 38.5408 28.5462 37.8481 29.6889 37.4322L35.911 35.1675C35.911 35.1675 45.5716 32.6377 45.3576 26.4346C47.569 32.5104 44.4358 39.2295 38.367 41.4384L25.6789 46.0564L25.6694 46.052Z" fill="url(#paint4_linear_164836_22450)"/>
<path d="M24.6926 46.052C25.5447 43.7109 25.0152 41.1983 23.5181 39.4146C22.7867 38.5408 21.8158 37.8481 20.6731 37.4322L14.4509 35.1675C14.4509 35.1675 4.79032 32.6377 5.00437 26.4346C2.79296 32.5104 5.92613 39.2295 11.995 41.4384L24.683 46.0564L24.6926 46.052Z" fill="url(#paint5_linear_164836_22450)"/>
<path d="M25.3594 31.7374C27.8509 31.7374 29.8707 29.7176 29.8707 27.2261C29.8707 24.7346 27.8509 22.7148 25.3594 22.7148C22.8679 22.7148 20.8481 24.7346 20.8481 27.2261C20.8481 29.7176 22.8679 31.7374 25.3594 31.7374Z" fill="url(#paint6_linear_164836_22450)"/>
<path d="M62.7668 23C62.6056 23 62.4686 22.9436 62.3558 22.8307C62.2429 22.7179 62.1865 22.5809 62.1865 22.4197V6.6791C62.1865 6.50179 62.2429 6.35672 62.3558 6.24388C62.4686 6.13104 62.6056 6.07463 62.7668 6.07463H68.6665C70.2946 6.07463 71.6325 6.32448 72.6802 6.82418C73.7441 7.32388 74.542 8.06537 75.074 9.04866C75.622 10.0319 75.9041 11.2328 75.9202 12.6513C75.9525 13.3606 75.9686 13.9893 75.9686 14.5373C75.9686 15.0854 75.9525 15.706 75.9202 16.3991C75.888 17.8982 75.614 19.1394 75.0982 20.1227C74.5823 21.0899 73.8005 21.8152 72.7528 22.2988C71.7211 22.7663 70.3994 23 68.7874 23H62.7668ZM65.5474 20.2194H68.6665C69.5692 20.2194 70.3026 20.0904 70.8668 19.8325C71.431 19.5746 71.842 19.1636 72.0999 18.5994C72.374 18.0191 72.5191 17.2615 72.5352 16.3266C72.5513 15.843 72.5594 15.4239 72.5594 15.0693C72.5755 14.6985 72.5755 14.3358 72.5594 13.9812C72.5594 13.6104 72.5513 13.1913 72.5352 12.7239C72.5029 11.4021 72.1725 10.4269 71.5438 9.79821C70.9152 9.16955 69.9158 8.85522 68.5456 8.85522H65.5474V20.2194ZM79.7677 23C79.6066 23 79.4695 22.9436 79.3567 22.8307C79.2439 22.7179 79.1874 22.5809 79.1874 22.4197V6.65492C79.1874 6.49373 79.2439 6.35672 79.3567 6.24388C79.4695 6.13104 79.6066 6.07463 79.7677 6.07463H82.0406C82.2179 6.07463 82.3549 6.13104 82.4516 6.24388C82.5645 6.35672 82.6209 6.49373 82.6209 6.65492V22.4197C82.6209 22.5809 82.5645 22.7179 82.4516 22.8307C82.3549 22.9436 82.2179 23 82.0406 23H79.7677ZM92.9896 23.2418C91.5066 23.2418 90.2412 22.9839 89.1934 22.4681C88.1618 21.9522 87.3558 21.2107 86.7755 20.2436C86.2114 19.2603 85.9051 18.0916 85.8567 16.7376C85.8406 16.0445 85.8325 15.303 85.8325 14.5131C85.8325 13.7072 85.8406 12.9496 85.8567 12.2403C85.9051 10.9024 86.2114 9.75791 86.7755 8.80687C87.3558 7.85582 88.1699 7.12239 89.2176 6.60657C90.2815 6.09075 91.5388 5.83284 92.9896 5.83284C94.1663 5.83284 95.1979 5.99403 96.0845 6.31642C96.9711 6.62269 97.7045 7.02567 98.2848 7.52537C98.8812 8.00896 99.3245 8.53284 99.6146 9.09701C99.9209 9.66119 100.082 10.1851 100.098 10.6687C100.114 10.8137 100.074 10.9346 99.9773 11.0313C99.8806 11.1281 99.7517 11.1764 99.5905 11.1764H97.1C96.9388 11.1764 96.8179 11.1442 96.7373 11.0797C96.6567 11.0152 96.5842 10.9185 96.5197 10.7896C96.3908 10.451 96.1893 10.1206 95.9152 9.79821C95.6412 9.4597 95.2705 9.17761 94.803 8.95194C94.3355 8.72627 93.7311 8.61343 92.9896 8.61343C91.8934 8.61343 91.0149 8.90358 90.354 9.48388C89.7093 10.0642 89.3627 11.0233 89.3143 12.3612C89.266 13.7636 89.266 15.1821 89.3143 16.6167C89.3627 17.9869 89.7173 18.9701 90.3782 19.5666C91.0552 20.163 91.9418 20.4612 93.0379 20.4612C93.7633 20.4612 94.4081 20.3322 94.9722 20.0743C95.5525 19.8164 96.0039 19.4134 96.3263 18.8654C96.6648 18.3173 96.834 17.6161 96.834 16.7618V16.0122H93.8842C93.723 16.0122 93.586 15.9558 93.4731 15.843C93.3603 15.7301 93.3039 15.5851 93.3039 15.4078V14.1263C93.3039 13.949 93.3603 13.8039 93.4731 13.691C93.586 13.5782 93.723 13.5218 93.8842 13.5218H99.663C99.8403 13.5218 99.9773 13.5782 100.074 13.691C100.187 13.8039 100.243 13.949 100.243 14.1263V16.6651C100.243 18.0191 99.9451 19.1878 99.3487 20.171C98.7684 21.1543 97.9302 21.9119 96.834 22.4439C95.754 22.9758 94.4725 23.2418 92.9896 23.2418ZM103.923 23C103.762 23 103.625 22.9436 103.512 22.8307C103.399 22.7179 103.343 22.5809 103.343 22.4197V6.6791C103.343 6.50179 103.399 6.35672 103.512 6.24388C103.625 6.13104 103.762 6.07463 103.923 6.07463H109.823C111.451 6.07463 112.789 6.32448 113.837 6.82418C114.901 7.32388 115.698 8.06537 116.23 9.04866C116.778 10.0319 117.061 11.2328 117.077 12.6513C117.109 13.3606 117.125 13.9893 117.125 14.5373C117.125 15.0854 117.109 15.706 117.077 16.3991C117.044 17.8982 116.77 19.1394 116.255 20.1227C115.739 21.0899 114.957 21.8152 113.909 22.2988C112.878 22.7663 111.556 23 109.944 23H103.923ZM106.704 20.2194H109.823C110.726 20.2194 111.459 20.0904 112.023 19.8325C112.587 19.5746 112.998 19.1636 113.256 18.5994C113.53 18.0191 113.675 17.2615 113.692 16.3266C113.708 15.843 113.716 15.4239 113.716 15.0693C113.732 14.6985 113.732 14.3358 113.716 13.9812C113.716 13.6104 113.708 13.1913 113.692 12.7239C113.659 11.4021 113.329 10.4269 112.7 9.79821C112.072 9.16955 111.072 8.85522 109.702 8.85522H106.704V20.2194ZM118.974 23C118.845 23 118.724 22.9516 118.611 22.8549C118.514 22.7582 118.466 22.6373 118.466 22.4922C118.466 22.4278 118.482 22.3552 118.514 22.2746L124.341 6.6791C124.39 6.51791 124.478 6.38089 124.607 6.26806C124.752 6.1391 124.946 6.07463 125.188 6.07463H127.823C128.065 6.07463 128.25 6.1391 128.379 6.26806C128.508 6.38089 128.605 6.51791 128.669 6.6791L134.497 22.2746C134.513 22.3552 134.521 22.4278 134.521 22.4922C134.521 22.6373 134.472 22.7582 134.376 22.8549C134.279 22.9516 134.166 23 134.037 23H131.934C131.708 23 131.539 22.9516 131.426 22.8549C131.329 22.7421 131.265 22.6373 131.232 22.5406L130.096 19.5907H122.915L121.778 22.5406C121.746 22.6373 121.674 22.7421 121.561 22.8549C121.464 22.9516 121.303 23 121.077 23H118.974ZM123.761 16.8101H129.25L126.493 9.33881L123.761 16.8101ZM139.966 23C139.804 23 139.667 22.9436 139.555 22.8307C139.442 22.7179 139.385 22.5809 139.385 22.4197V16.9552L133.679 6.84836C133.663 6.81612 133.647 6.77582 133.631 6.72746C133.615 6.6791 133.606 6.63075 133.606 6.58239C133.606 6.43731 133.655 6.31642 133.752 6.2197C133.848 6.12298 133.961 6.07463 134.09 6.07463H136.242C136.435 6.07463 136.589 6.12298 136.701 6.2197C136.83 6.31642 136.919 6.42119 136.967 6.53403L141.078 13.5701L145.164 6.53403C145.229 6.42119 145.317 6.31642 145.43 6.2197C145.559 6.12298 145.72 6.07463 145.914 6.07463H148.041C148.186 6.07463 148.307 6.12298 148.404 6.2197C148.501 6.31642 148.549 6.43731 148.549 6.58239C148.549 6.63075 148.541 6.6791 148.525 6.72746C148.525 6.77582 148.509 6.81612 148.477 6.84836L142.77 16.9552V22.4197C142.77 22.5809 142.714 22.7179 142.601 22.8307C142.488 22.9436 142.343 23 142.166 23H139.966ZM148.111 23C147.982 23 147.861 22.9516 147.749 22.8549C147.652 22.7582 147.604 22.6373 147.604 22.4922C147.604 22.4278 147.62 22.3552 147.652 22.2746L153.479 6.6791C153.527 6.51791 153.616 6.38089 153.745 6.26806C153.89 6.1391 154.084 6.07463 154.325 6.07463H156.961C157.203 6.07463 157.388 6.1391 157.517 6.26806C157.646 6.38089 157.743 6.51791 157.807 6.6791L163.634 22.2746C163.65 22.3552 163.658 22.4278 163.658 22.4922C163.658 22.6373 163.61 22.7582 163.513 22.8549C163.417 22.9516 163.304 23 163.175 23H161.071C160.846 23 160.676 22.9516 160.564 22.8549C160.467 22.7421 160.402 22.6373 160.37 22.5406L159.234 19.5907H152.053L150.916 22.5406C150.884 22.6373 150.811 22.7421 150.698 22.8549C150.602 22.9516 150.441 23 150.215 23H148.111ZM152.899 16.8101H158.387L155.631 9.33881L152.899 16.8101Z" fill="#292D32"/>
<path d="M98.1305 38C98.0271 38 97.9472 37.9718 97.8908 37.9154C97.8343 37.8496 97.8061 37.7696 97.8061 37.6756V28.4654C97.8061 28.3619 97.8343 28.282 97.8908 28.2256C97.9472 28.1598 98.0271 28.1269 98.1305 28.1269H101.713C102.409 28.1269 103.011 28.2397 103.518 28.4654C104.036 28.691 104.435 29.0296 104.717 29.4809C104.999 29.9228 105.14 30.4776 105.14 31.1452C105.14 31.8128 104.999 32.3676 104.717 32.8096C104.435 33.2515 104.036 33.5853 103.518 33.811C103.011 34.0366 102.409 34.1495 101.713 34.1495H99.2166V37.6756C99.2166 37.7696 99.1837 37.8496 99.1178 37.9154C99.0614 37.9718 98.9815 38 98.8781 38H98.1305ZM99.2025 32.9647H101.643C102.338 32.9647 102.86 32.8096 103.208 32.4993C103.556 32.189 103.73 31.7376 103.73 31.1452C103.73 30.5622 103.561 30.1109 103.222 29.7912C102.884 29.4715 102.357 29.3116 101.643 29.3116H99.2025V32.9647ZM109.495 38.141C108.527 38.141 107.756 37.8449 107.182 37.2525C106.609 36.6507 106.294 35.8326 106.237 34.7983C106.228 34.676 106.223 34.5209 106.223 34.3328C106.223 34.1354 106.228 33.9755 106.237 33.8533C106.275 33.1857 106.43 32.6027 106.703 32.1043C106.975 31.5966 107.347 31.2063 107.817 30.9337C108.297 30.661 108.856 30.5246 109.495 30.5246C110.21 30.5246 110.807 30.6751 111.287 30.976C111.776 31.2769 112.147 31.7047 112.401 32.2595C112.655 32.8143 112.782 33.4631 112.782 34.2059V34.4457C112.782 34.5491 112.749 34.629 112.683 34.6854C112.627 34.7419 112.551 34.7701 112.457 34.7701H107.577C107.577 34.7795 107.577 34.7983 107.577 34.8265C107.577 34.8547 107.577 34.8782 107.577 34.897C107.596 35.2825 107.681 35.6446 107.831 35.9831C107.982 36.3122 108.198 36.5801 108.48 36.787C108.762 36.9939 109.101 37.0973 109.495 37.0973C109.834 37.0973 110.116 37.0456 110.342 36.9422C110.567 36.8387 110.751 36.7259 110.892 36.6037C111.033 36.472 111.127 36.3733 111.174 36.3075C111.258 36.1852 111.324 36.1147 111.371 36.0959C111.418 36.0677 111.494 36.0536 111.597 36.0536H112.274C112.368 36.0536 112.443 36.0818 112.5 36.1382C112.566 36.1852 112.594 36.2557 112.584 36.3498C112.575 36.4908 112.5 36.6648 112.359 36.8716C112.218 37.0691 112.015 37.2666 111.752 37.464C111.489 37.6615 111.169 37.826 110.793 37.9577C110.417 38.0799 109.984 38.141 109.495 38.141ZM107.577 33.7969H111.442V33.7546C111.442 33.3314 111.362 32.9553 111.202 32.6262C111.052 32.2971 110.831 32.0385 110.539 31.8504C110.248 31.653 109.9 31.5543 109.495 31.5543C109.091 31.5543 108.743 31.653 108.452 31.8504C108.17 32.0385 107.953 32.2971 107.803 32.6262C107.652 32.9553 107.577 33.3314 107.577 33.7546V33.7969ZM117.007 38.141C116.48 38.141 116.029 38.0752 115.653 37.9436C115.277 37.8119 114.971 37.6521 114.736 37.464C114.501 37.276 114.323 37.0879 114.2 36.8999C114.087 36.7118 114.026 36.5613 114.017 36.4485C114.008 36.3451 114.04 36.2651 114.116 36.2087C114.191 36.1523 114.266 36.1241 114.341 36.1241H114.962C115.018 36.1241 115.061 36.1335 115.089 36.1523C115.126 36.1617 115.173 36.1993 115.23 36.2651C115.352 36.3968 115.488 36.5284 115.639 36.6601C115.789 36.7917 115.973 36.8999 116.189 36.9845C116.415 37.0691 116.692 37.1114 117.021 37.1114C117.501 37.1114 117.896 37.0221 118.206 36.8434C118.516 36.6554 118.671 36.3827 118.671 36.0254C118.671 35.7903 118.606 35.6022 118.474 35.4612C118.352 35.3201 118.126 35.1932 117.797 35.0804C117.477 34.9675 117.035 34.85 116.471 34.7278C115.907 34.5961 115.46 34.4363 115.131 34.2482C114.802 34.0507 114.567 33.8204 114.426 33.5571C114.285 33.2844 114.214 32.9788 114.214 32.6403C114.214 32.2924 114.318 31.9586 114.525 31.6389C114.732 31.3098 115.032 31.0418 115.427 30.8349C115.832 30.6281 116.335 30.5246 116.937 30.5246C117.425 30.5246 117.844 30.5857 118.192 30.708C118.54 30.8302 118.827 30.9854 119.052 31.1734C119.278 31.3521 119.447 31.5307 119.56 31.7094C119.673 31.8881 119.734 32.0385 119.743 32.1607C119.753 32.2548 119.725 32.3347 119.659 32.4005C119.593 32.4569 119.518 32.4851 119.433 32.4851H118.841C118.775 32.4851 118.718 32.471 118.671 32.4428C118.634 32.4146 118.596 32.3817 118.559 32.3441C118.465 32.2219 118.352 32.0996 118.22 31.9774C118.098 31.8551 117.933 31.7564 117.726 31.6812C117.529 31.5966 117.266 31.5543 116.937 31.5543C116.466 31.5543 116.114 31.653 115.879 31.8504C115.644 32.0479 115.526 32.2971 115.526 32.598C115.526 32.7766 115.578 32.9365 115.681 33.0775C115.785 33.2186 115.982 33.3455 116.274 33.4584C116.565 33.5712 116.998 33.6934 117.571 33.8251C118.192 33.9473 118.681 34.1119 119.038 34.3187C119.395 34.5256 119.649 34.7654 119.8 35.0381C119.95 35.3107 120.025 35.6257 120.025 35.9831C120.025 36.378 119.908 36.74 119.673 37.0691C119.447 37.3982 119.109 37.6615 118.657 37.859C118.215 38.047 117.665 38.141 117.007 38.141ZM123.703 38.141C123.233 38.141 122.805 38.047 122.42 37.859C122.034 37.6709 121.724 37.417 121.489 37.0973C121.254 36.7776 121.136 36.4156 121.136 36.0113C121.136 35.3625 121.4 34.8453 121.926 34.4598C122.453 34.0743 123.139 33.8204 123.985 33.6981L126.087 33.4019V32.9929C126.087 32.5416 125.955 32.189 125.692 31.9351C125.438 31.6812 125.02 31.5543 124.437 31.5543C124.014 31.5543 123.67 31.6389 123.407 31.8081C123.153 31.9774 122.975 32.1937 122.871 32.4569C122.815 32.598 122.716 32.6685 122.575 32.6685H121.94C121.837 32.6685 121.757 32.6403 121.701 32.5839C121.654 32.5181 121.63 32.4428 121.63 32.3582C121.63 32.2172 121.682 32.0432 121.785 31.8363C121.898 31.6295 122.067 31.4273 122.293 31.2299C122.519 31.0324 122.805 30.8678 123.153 30.7362C123.511 30.5951 123.943 30.5246 124.451 30.5246C125.015 30.5246 125.49 30.5999 125.875 30.7503C126.261 30.8913 126.562 31.0841 126.778 31.3286C127.004 31.5731 127.164 31.8504 127.258 32.1607C127.361 32.471 127.413 32.786 127.413 33.1057V37.6756C127.413 37.7696 127.38 37.8496 127.314 37.9154C127.258 37.9718 127.182 38 127.088 38H126.44C126.336 38 126.256 37.9718 126.2 37.9154C126.143 37.8496 126.115 37.7696 126.115 37.6756V37.0691C125.993 37.2384 125.828 37.4076 125.622 37.5769C125.415 37.7367 125.156 37.8731 124.846 37.9859C124.536 38.0893 124.155 38.141 123.703 38.141ZM124 37.0832C124.385 37.0832 124.738 37.0033 125.057 36.8434C125.377 36.6742 125.626 36.4156 125.805 36.0677C125.993 35.7198 126.087 35.2825 126.087 34.756V34.361L124.451 34.6008C123.783 34.6949 123.28 34.8547 122.942 35.0804C122.603 35.2966 122.434 35.574 122.434 35.9125C122.434 36.1758 122.509 36.3968 122.66 36.5754C122.82 36.7447 123.017 36.8716 123.252 36.9563C123.497 37.0409 123.746 37.0832 124 37.0832ZM129.765 38C129.671 38 129.591 37.9718 129.525 37.9154C129.469 37.8496 129.44 37.7696 129.44 37.6756V30.9901C129.44 30.896 129.469 30.8208 129.525 30.7644C129.591 30.6986 129.671 30.6657 129.765 30.6657H130.428C130.522 30.6657 130.597 30.6986 130.653 30.7644C130.719 30.8208 130.752 30.896 130.752 30.9901V31.6107C130.997 31.291 131.302 31.0324 131.669 30.8349C132.045 30.6281 132.525 30.5246 133.108 30.5246C133.719 30.5246 134.236 30.661 134.659 30.9337C135.092 31.1969 135.416 31.5684 135.632 32.0479C135.849 32.5181 135.957 33.0681 135.957 33.6981V37.6756C135.957 37.7696 135.929 37.8496 135.872 37.9154C135.816 37.9718 135.74 38 135.646 38H134.941C134.847 38 134.767 37.9718 134.701 37.9154C134.645 37.8496 134.617 37.7696 134.617 37.6756V33.7687C134.617 33.1104 134.457 32.598 134.137 32.2313C133.818 31.8551 133.347 31.6671 132.727 31.6671C132.144 31.6671 131.674 31.8551 131.316 32.2313C130.968 32.598 130.795 33.1104 130.795 33.7687V37.6756C130.795 37.7696 130.762 37.8496 130.696 37.9154C130.639 37.9718 130.564 38 130.47 38H129.765ZM140.761 38C140.234 38 139.806 37.9013 139.477 37.7038C139.148 37.4969 138.908 37.2101 138.758 36.8434C138.608 36.4673 138.532 36.0254 138.532 35.5176V31.794H137.432C137.338 31.794 137.258 31.7658 137.192 31.7094C137.136 31.6436 137.108 31.5637 137.108 31.4696V30.9901C137.108 30.896 137.136 30.8208 137.192 30.7644C137.258 30.6986 137.338 30.6657 137.432 30.6657H138.532V28.3102C138.532 28.2162 138.561 28.141 138.617 28.0846C138.683 28.0187 138.763 27.9858 138.857 27.9858H139.52C139.614 27.9858 139.689 28.0187 139.745 28.0846C139.811 28.141 139.844 28.2162 139.844 28.3102V30.6657H141.593C141.687 30.6657 141.762 30.6986 141.819 30.7644C141.885 30.8208 141.917 30.896 141.917 30.9901V31.4696C141.917 31.5637 141.885 31.6436 141.819 31.7094C141.762 31.7658 141.687 31.794 141.593 31.794H139.844V35.4189C139.844 35.8608 139.919 36.2087 140.07 36.4626C140.22 36.7165 140.488 36.8434 140.874 36.8434H141.734C141.828 36.8434 141.903 36.8763 141.96 36.9422C142.026 36.9986 142.058 37.0738 142.058 37.1678V37.6756C142.058 37.7696 142.026 37.8496 141.96 37.9154C141.903 37.9718 141.828 38 141.734 38H140.761ZM143.732 38C143.638 38 143.558 37.9718 143.492 37.9154C143.435 37.8496 143.407 37.7696 143.407 37.6756V31.0042C143.407 30.9101 143.435 30.8302 143.492 30.7644C143.558 30.6986 143.638 30.6657 143.732 30.6657H144.38C144.474 30.6657 144.554 30.6986 144.62 30.7644C144.686 30.8302 144.719 30.9101 144.719 31.0042V31.6248C144.907 31.3051 145.166 31.0653 145.495 30.9054C145.824 30.7456 146.219 30.6657 146.679 30.6657H147.244C147.338 30.6657 147.413 30.6986 147.469 30.7644C147.526 30.8208 147.554 30.896 147.554 30.9901V31.5684C147.554 31.6624 147.526 31.7376 147.469 31.794C147.413 31.8504 147.338 31.8787 147.244 31.8787H146.397C145.89 31.8787 145.49 32.0291 145.198 32.33C144.907 32.6215 144.761 33.0211 144.761 33.5289V37.6756C144.761 37.7696 144.728 37.8496 144.663 37.9154C144.597 37.9718 144.517 38 144.423 38H143.732ZM151.547 38.141C150.579 38.141 149.808 37.8449 149.234 37.2525C148.66 36.6507 148.345 35.8326 148.289 34.7983C148.28 34.676 148.275 34.5209 148.275 34.3328C148.275 34.1354 148.28 33.9755 148.289 33.8533C148.327 33.1857 148.482 32.6027 148.754 32.1043C149.027 31.5966 149.399 31.2063 149.869 30.9337C150.348 30.661 150.908 30.5246 151.547 30.5246C152.262 30.5246 152.859 30.6751 153.338 30.976C153.827 31.2769 154.199 31.7047 154.453 32.2595C154.707 32.8143 154.834 33.4631 154.834 34.2059V34.4457C154.834 34.5491 154.801 34.629 154.735 34.6854C154.678 34.7419 154.603 34.7701 154.509 34.7701H149.629C149.629 34.7795 149.629 34.7983 149.629 34.8265C149.629 34.8547 149.629 34.8782 149.629 34.897C149.648 35.2825 149.732 35.6446 149.883 35.9831C150.033 36.3122 150.25 36.5801 150.532 36.787C150.814 36.9939 151.152 37.0973 151.547 37.0973C151.886 37.0973 152.168 37.0456 152.393 36.9422C152.619 36.8387 152.802 36.7259 152.944 36.6037C153.085 36.472 153.179 36.3733 153.226 36.3075C153.31 36.1852 153.376 36.1147 153.423 36.0959C153.47 36.0677 153.545 36.0536 153.649 36.0536H154.326C154.42 36.0536 154.495 36.0818 154.551 36.1382C154.617 36.1852 154.645 36.2557 154.636 36.3498C154.627 36.4908 154.551 36.6648 154.41 36.8716C154.269 37.0691 154.067 37.2666 153.804 37.464C153.541 37.6615 153.221 37.826 152.845 37.9577C152.469 38.0799 152.036 38.141 151.547 38.141ZM149.629 33.7969H153.494V33.7546C153.494 33.3314 153.414 32.9553 153.254 32.6262C153.103 32.2971 152.882 32.0385 152.591 31.8504C152.299 31.653 151.951 31.5543 151.547 31.5543C151.143 31.5543 150.795 31.653 150.503 31.8504C150.221 32.0385 150.005 32.2971 149.855 32.6262C149.704 32.9553 149.629 33.3314 149.629 33.7546V33.7969ZM156.844 38C156.75 38 156.67 37.9718 156.605 37.9154C156.548 37.8496 156.52 37.7696 156.52 37.6756V30.9901C156.52 30.896 156.548 30.8208 156.605 30.7644C156.67 30.6986 156.75 30.6657 156.844 30.6657H157.507C157.601 30.6657 157.677 30.6986 157.733 30.7644C157.799 30.8208 157.832 30.896 157.832 30.9901V31.6107C158.076 31.291 158.382 31.0324 158.748 30.8349C159.125 30.6281 159.604 30.5246 160.187 30.5246C160.798 30.5246 161.316 30.661 161.739 30.9337C162.171 31.1969 162.496 31.5684 162.712 32.0479C162.928 32.5181 163.036 33.0681 163.036 33.6981V37.6756C163.036 37.7696 163.008 37.8496 162.952 37.9154C162.895 37.9718 162.82 38 162.726 38H162.021C161.927 38 161.847 37.9718 161.781 37.9154C161.725 37.8496 161.696 37.7696 161.696 37.6756V33.7687C161.696 33.1104 161.536 32.598 161.217 32.2313C160.897 31.8551 160.427 31.6671 159.806 31.6671C159.223 31.6671 158.753 31.8551 158.396 32.2313C158.048 32.598 157.874 33.1104 157.874 33.7687V37.6756C157.874 37.7696 157.841 37.8496 157.775 37.9154C157.719 37.9718 157.644 38 157.55 38H156.844Z" fill="#292D32"/>
<defs>
<linearGradient id="paint0_linear_164836_22450" x1="20.1883" y1="5.39174" x2="10.719" y2="25.2718" gradientUnits="userSpaceOnUse">
<stop stop-color="#067936"/>
<stop offset="1" stop-color="#32A651"/>
</linearGradient>
<linearGradient id="paint1_linear_164836_22450" x1="30.3696" y1="5.39174" x2="39.839" y2="25.2718" gradientUnits="userSpaceOnUse">
<stop stop-color="#067936"/>
<stop offset="1" stop-color="#32A651"/>
</linearGradient>
<linearGradient id="paint2_linear_164836_22450" x1="29.6596" y1="41.6031" x2="42.685" y2="24.9473" gradientUnits="userSpaceOnUse">
<stop stop-color="#E58906"/>
<stop offset="1" stop-color="#FFC701"/>
</linearGradient>
<linearGradient id="paint3_linear_164836_22450" x1="20.7023" y1="41.6031" x2="7.67695" y2="24.9473" gradientUnits="userSpaceOnUse">
<stop stop-color="#E58906"/>
<stop offset="1" stop-color="#FFC701"/>
</linearGradient>
<linearGradient id="paint4_linear_164836_22450" x1="29.6596" y1="45.6334" x2="42.685" y2="28.9776" gradientUnits="userSpaceOnUse">
<stop stop-color="#077A37"/>
<stop offset="1" stop-color="#33A652"/>
</linearGradient>
<linearGradient id="paint5_linear_164836_22450" x1="20.7023" y1="45.6334" x2="7.67695" y2="28.9776" gradientUnits="userSpaceOnUse">
<stop stop-color="#077A37"/>
<stop offset="1" stop-color="#33A652"/>
</linearGradient>
<linearGradient id="paint6_linear_164836_22450" x1="21.32" y1="30.0343" x2="27.8913" y2="23.8635" gradientUnits="userSpaceOnUse">
<stop stop-color="#E58905"/>
<stop offset="1" stop-color="#FFC700"/>
</linearGradient>
</defs>
</svg>
