<svg width="165" height="50" viewBox="0 0 165 50" fill="none" xmlns="http://www.w3.org/2000/svg">
<path d="M7 0.000210511C10.9728 -0.0244655 14.4521 2.12234 16.3152 5.33022C17.2282 6.89715 17.7587 8.72317 17.7711 10.6602L17.8204 21.2092C17.8204 21.2092 16.4262 37.0512 25.8278 40.074C15.5379 40.1233 7.14806 31.8199 7.08637 21.5177L7 0.000210511Z" fill="url(#paint0_linear_164836_22447)"/>
<path d="M32.935 28.6518C35.5099 25.8819 35.3518 21.5491 32.5819 18.9743C29.812 16.3994 25.4792 16.5575 22.9044 19.3274C20.3295 22.0973 20.4876 26.4301 23.2575 29.0049C26.0274 31.5798 30.3602 31.4217 32.935 28.6518Z" fill="url(#paint1_linear_164836_22447)"/>
<path d="M48.9368 6.9707C44.9023 6.9707 41.3983 8.88309 39.5229 11.7332C38.6099 13.1274 38.0794 14.7436 38.0794 16.471V23.3062C38.0794 23.3062 39.5723 37.3468 30.0597 40.0735C40.4976 40.0735 48.9615 32.6707 48.9615 23.5283V6.9707H48.9368Z" fill="url(#paint2_linear_164836_22447)"/>
<path d="M48.9492 23.2198C49.1466 33.4479 39.4983 40.0734 30.0474 40.0734C39.8437 37.0136 36.8209 25.2925 40.1768 22.4301C44.9763 18.3339 48.9492 23.2198 48.9492 23.2198Z" fill="url(#paint3_linear_164836_22447)"/>
<path d="M62.7668 23C62.6056 23 62.4686 22.9436 62.3558 22.8307C62.2429 22.7179 62.1865 22.5809 62.1865 22.4197V6.6791C62.1865 6.50179 62.2429 6.35672 62.3558 6.24388C62.4686 6.13104 62.6056 6.07463 62.7668 6.07463H68.6665C70.2946 6.07463 71.6325 6.32448 72.6802 6.82418C73.7441 7.32388 74.542 8.06537 75.074 9.04866C75.622 10.0319 75.9041 11.2328 75.9202 12.6513C75.9525 13.3606 75.9686 13.9893 75.9686 14.5373C75.9686 15.0854 75.9525 15.706 75.9202 16.3991C75.888 17.8982 75.614 19.1394 75.0982 20.1227C74.5823 21.0899 73.8005 21.8152 72.7528 22.2988C71.7211 22.7663 70.3994 23 68.7874 23H62.7668ZM65.5474 20.2194H68.6665C69.5692 20.2194 70.3026 20.0904 70.8668 19.8325C71.431 19.5746 71.842 19.1636 72.0999 18.5994C72.374 18.0191 72.5191 17.2615 72.5352 16.3266C72.5513 15.843 72.5594 15.4239 72.5594 15.0693C72.5755 14.6985 72.5755 14.3358 72.5594 13.9812C72.5594 13.6104 72.5513 13.1913 72.5352 12.7239C72.5029 11.4021 72.1725 10.4269 71.5438 9.79821C70.9152 9.16955 69.9158 8.85522 68.5456 8.85522H65.5474V20.2194ZM79.7677 23C79.6066 23 79.4695 22.9436 79.3567 22.8307C79.2439 22.7179 79.1874 22.5809 79.1874 22.4197V6.65492C79.1874 6.49373 79.2439 6.35672 79.3567 6.24388C79.4695 6.13104 79.6066 6.07463 79.7677 6.07463H82.0406C82.2179 6.07463 82.3549 6.13104 82.4516 6.24388C82.5645 6.35672 82.6209 6.49373 82.6209 6.65492V22.4197C82.6209 22.5809 82.5645 22.7179 82.4516 22.8307C82.3549 22.9436 82.2179 23 82.0406 23H79.7677ZM92.9896 23.2418C91.5066 23.2418 90.2412 22.9839 89.1934 22.4681C88.1618 21.9522 87.3558 21.2107 86.7755 20.2436C86.2114 19.2603 85.9051 18.0916 85.8567 16.7376C85.8406 16.0445 85.8325 15.303 85.8325 14.5131C85.8325 13.7072 85.8406 12.9496 85.8567 12.2403C85.9051 10.9024 86.2114 9.75791 86.7755 8.80687C87.3558 7.85582 88.1699 7.12239 89.2176 6.60657C90.2815 6.09075 91.5388 5.83284 92.9896 5.83284C94.1663 5.83284 95.1979 5.99403 96.0845 6.31642C96.9711 6.62269 97.7045 7.02567 98.2848 7.52537C98.8812 8.00896 99.3245 8.53284 99.6146 9.09701C99.9209 9.66119 100.082 10.1851 100.098 10.6687C100.114 10.8137 100.074 10.9346 99.9773 11.0313C99.8806 11.1281 99.7517 11.1764 99.5905 11.1764H97.1C96.9388 11.1764 96.8179 11.1442 96.7373 11.0797C96.6567 11.0152 96.5842 10.9185 96.5197 10.7896C96.3908 10.451 96.1893 10.1206 95.9152 9.79821C95.6412 9.4597 95.2705 9.17761 94.803 8.95194C94.3355 8.72627 93.7311 8.61343 92.9896 8.61343C91.8934 8.61343 91.0149 8.90358 90.354 9.48388C89.7093 10.0642 89.3627 11.0233 89.3143 12.3612C89.266 13.7636 89.266 15.1821 89.3143 16.6167C89.3627 17.9869 89.7173 18.9701 90.3782 19.5666C91.0552 20.163 91.9418 20.4612 93.0379 20.4612C93.7633 20.4612 94.4081 20.3322 94.9722 20.0743C95.5525 19.8164 96.0039 19.4134 96.3263 18.8654C96.6648 18.3173 96.834 17.6161 96.834 16.7618V16.0122H93.8842C93.723 16.0122 93.586 15.9558 93.4731 15.843C93.3603 15.7301 93.3039 15.5851 93.3039 15.4078V14.1263C93.3039 13.949 93.3603 13.8039 93.4731 13.691C93.586 13.5782 93.723 13.5218 93.8842 13.5218H99.663C99.8403 13.5218 99.9773 13.5782 100.074 13.691C100.187 13.8039 100.243 13.949 100.243 14.1263V16.6651C100.243 18.0191 99.9451 19.1878 99.3487 20.171C98.7684 21.1543 97.9302 21.9119 96.834 22.4439C95.754 22.9758 94.4725 23.2418 92.9896 23.2418ZM103.923 23C103.762 23 103.625 22.9436 103.512 22.8307C103.399 22.7179 103.343 22.5809 103.343 22.4197V6.6791C103.343 6.50179 103.399 6.35672 103.512 6.24388C103.625 6.13104 103.762 6.07463 103.923 6.07463H109.823C111.451 6.07463 112.789 6.32448 113.837 6.82418C114.901 7.32388 115.698 8.06537 116.23 9.04866C116.778 10.0319 117.061 11.2328 117.077 12.6513C117.109 13.3606 117.125 13.9893 117.125 14.5373C117.125 15.0854 117.109 15.706 117.077 16.3991C117.044 17.8982 116.77 19.1394 116.255 20.1227C115.739 21.0899 114.957 21.8152 113.909 22.2988C112.878 22.7663 111.556 23 109.944 23H103.923ZM106.704 20.2194H109.823C110.726 20.2194 111.459 20.0904 112.023 19.8325C112.587 19.5746 112.998 19.1636 113.256 18.5994C113.53 18.0191 113.675 17.2615 113.692 16.3266C113.708 15.843 113.716 15.4239 113.716 15.0693C113.732 14.6985 113.732 14.3358 113.716 13.9812C113.716 13.6104 113.708 13.1913 113.692 12.7239C113.659 11.4021 113.329 10.4269 112.7 9.79821C112.072 9.16955 111.072 8.85522 109.702 8.85522H106.704V20.2194ZM118.974 23C118.845 23 118.724 22.9516 118.611 22.8549C118.514 22.7582 118.466 22.6373 118.466 22.4922C118.466 22.4278 118.482 22.3552 118.514 22.2746L124.341 6.6791C124.39 6.51791 124.478 6.38089 124.607 6.26806C124.752 6.1391 124.946 6.07463 125.188 6.07463H127.823C128.065 6.07463 128.25 6.1391 128.379 6.26806C128.508 6.38089 128.605 6.51791 128.669 6.6791L134.497 22.2746C134.513 22.3552 134.521 22.4278 134.521 22.4922C134.521 22.6373 134.472 22.7582 134.376 22.8549C134.279 22.9516 134.166 23 134.037 23H131.934C131.708 23 131.539 22.9516 131.426 22.8549C131.329 22.7421 131.265 22.6373 131.232 22.5406L130.096 19.5907H122.915L121.778 22.5406C121.746 22.6373 121.674 22.7421 121.561 22.8549C121.464 22.9516 121.303 23 121.077 23H118.974ZM123.761 16.8101H129.25L126.493 9.33881L123.761 16.8101ZM139.966 23C139.804 23 139.667 22.9436 139.555 22.8307C139.442 22.7179 139.385 22.5809 139.385 22.4197V16.9552L133.679 6.84836C133.663 6.81612 133.647 6.77582 133.631 6.72746C133.615 6.6791 133.606 6.63075 133.606 6.58239C133.606 6.43731 133.655 6.31642 133.752 6.2197C133.848 6.12298 133.961 6.07463 134.09 6.07463H136.242C136.435 6.07463 136.589 6.12298 136.701 6.2197C136.83 6.31642 136.919 6.42119 136.967 6.53403L141.078 13.5701L145.164 6.53403C145.229 6.42119 145.317 6.31642 145.43 6.2197C145.559 6.12298 145.72 6.07463 145.914 6.07463H148.041C148.186 6.07463 148.307 6.12298 148.404 6.2197C148.501 6.31642 148.549 6.43731 148.549 6.58239C148.549 6.63075 148.541 6.6791 148.525 6.72746C148.525 6.77582 148.509 6.81612 148.477 6.84836L142.77 16.9552V22.4197C142.77 22.5809 142.714 22.7179 142.601 22.8307C142.488 22.9436 142.343 23 142.166 23H139.966ZM148.111 23C147.982 23 147.861 22.9516 147.749 22.8549C147.652 22.7582 147.604 22.6373 147.604 22.4922C147.604 22.4278 147.62 22.3552 147.652 22.2746L153.479 6.6791C153.527 6.51791 153.616 6.38089 153.745 6.26806C153.89 6.1391 154.084 6.07463 154.325 6.07463H156.961C157.203 6.07463 157.388 6.1391 157.517 6.26806C157.646 6.38089 157.743 6.51791 157.807 6.6791L163.634 22.2746C163.65 22.3552 163.658 22.4278 163.658 22.4922C163.658 22.6373 163.61 22.7582 163.513 22.8549C163.417 22.9516 163.304 23 163.175 23H161.071C160.846 23 160.676 22.9516 160.564 22.8549C160.467 22.7421 160.402 22.6373 160.37 22.5406L159.234 19.5907H152.053L150.916 22.5406C150.884 22.6373 150.811 22.7421 150.698 22.8549C150.602 22.9516 150.441 23 150.215 23H148.111ZM152.899 16.8101H158.387L155.631 9.33881L152.899 16.8101Z" fill="#292D32"/>
<path d="M92.8964 38C92.793 38 92.7131 37.9718 92.6567 37.9154C92.6003 37.8496 92.572 37.7696 92.572 37.6756V28.4654C92.572 28.3619 92.6003 28.282 92.6567 28.2256C92.7131 28.1598 92.793 28.1269 92.8964 28.1269H96.479C97.1748 28.1269 97.7766 28.2397 98.2844 28.4654C98.8015 28.691 99.2011 29.0296 99.4832 29.4809C99.7653 29.9228 99.9064 30.4776 99.9064 31.1452C99.9064 31.8128 99.7653 32.3676 99.4832 32.8096C99.2011 33.2515 98.8015 33.5853 98.2844 33.811C97.7766 34.0366 97.1748 34.1495 96.479 34.1495H93.9825V37.6756C93.9825 37.7696 93.9496 37.8496 93.8838 37.9154C93.8273 37.9718 93.7474 38 93.644 38H92.8964ZM93.9684 32.9647H96.4085C97.1043 32.9647 97.6261 32.8096 97.9741 32.4993C98.322 32.189 98.4959 31.7376 98.4959 31.1452C98.4959 30.5622 98.3267 30.1109 97.9882 29.7912C97.6497 29.4715 97.1231 29.3116 96.4085 29.3116H93.9684V32.9647ZM104.261 38.141C103.293 38.141 102.522 37.8449 101.948 37.2525C101.375 36.6507 101.06 35.8326 101.003 34.7983C100.994 34.676 100.989 34.5209 100.989 34.3328C100.989 34.1354 100.994 33.9755 101.003 33.8533C101.041 33.1857 101.196 32.6027 101.469 32.1043C101.741 31.5966 102.113 31.2063 102.583 30.9337C103.062 30.661 103.622 30.5246 104.261 30.5246C104.976 30.5246 105.573 30.6751 106.053 30.976C106.542 31.2769 106.913 31.7047 107.167 32.2595C107.421 32.8143 107.548 33.4631 107.548 34.2059V34.4457C107.548 34.5491 107.515 34.629 107.449 34.6854C107.393 34.7419 107.317 34.7701 107.223 34.7701H102.343C102.343 34.7795 102.343 34.7983 102.343 34.8265C102.343 34.8547 102.343 34.8782 102.343 34.897C102.362 35.2825 102.447 35.6446 102.597 35.9831C102.747 36.3122 102.964 36.5801 103.246 36.787C103.528 36.9939 103.866 37.0973 104.261 37.0973C104.6 37.0973 104.882 37.0456 105.108 36.9422C105.333 36.8387 105.517 36.7259 105.658 36.6037C105.799 36.472 105.893 36.3733 105.94 36.3075C106.024 36.1852 106.09 36.1147 106.137 36.0959C106.184 36.0677 106.259 36.0536 106.363 36.0536H107.04C107.134 36.0536 107.209 36.0818 107.266 36.1382C107.331 36.1852 107.36 36.2557 107.35 36.3498C107.341 36.4908 107.266 36.6648 107.125 36.8716C106.984 37.0691 106.781 37.2666 106.518 37.464C106.255 37.6615 105.935 37.826 105.559 37.9577C105.183 38.0799 104.75 38.141 104.261 38.141ZM102.343 33.7969H106.208V33.7546C106.208 33.3314 106.128 32.9553 105.968 32.6262C105.818 32.2971 105.597 32.0385 105.305 31.8504C105.014 31.653 104.666 31.5543 104.261 31.5543C103.857 31.5543 103.509 31.653 103.218 31.8504C102.936 32.0385 102.719 32.2971 102.569 32.6262C102.418 32.9553 102.343 33.3314 102.343 33.7546V33.7969ZM109.559 38C109.465 38 109.385 37.9718 109.319 37.9154C109.262 37.8496 109.234 37.7696 109.234 37.6756V31.0042C109.234 30.9101 109.262 30.8302 109.319 30.7644C109.385 30.6986 109.465 30.6657 109.559 30.6657H110.207C110.301 30.6657 110.381 30.6986 110.447 30.7644C110.513 30.8302 110.546 30.9101 110.546 31.0042V31.6248C110.734 31.3051 110.993 31.0653 111.322 30.9054C111.651 30.7456 112.046 30.6657 112.506 30.6657H113.071C113.165 30.6657 113.24 30.6986 113.296 30.7644C113.353 30.8208 113.381 30.896 113.381 30.9901V31.5684C113.381 31.6624 113.353 31.7376 113.296 31.794C113.24 31.8504 113.165 31.8787 113.071 31.8787H112.224C111.717 31.8787 111.317 32.0291 111.025 32.33C110.734 32.6215 110.588 33.0211 110.588 33.5289V37.6756C110.588 37.7696 110.555 37.8496 110.489 37.9154C110.424 37.9718 110.344 38 110.25 38H109.559ZM117.131 38.141C116.604 38.141 116.153 38.0752 115.777 37.9436C115.401 37.8119 115.095 37.6521 114.86 37.464C114.625 37.276 114.446 37.0879 114.324 36.8999C114.211 36.7118 114.15 36.5613 114.141 36.4485C114.131 36.3451 114.164 36.2651 114.24 36.2087C114.315 36.1523 114.39 36.1241 114.465 36.1241H115.086C115.142 36.1241 115.185 36.1335 115.213 36.1523C115.25 36.1617 115.297 36.1993 115.354 36.2651C115.476 36.3968 115.612 36.5284 115.763 36.6601C115.913 36.7917 116.097 36.8999 116.313 36.9845C116.539 37.0691 116.816 37.1114 117.145 37.1114C117.625 37.1114 118.02 37.0221 118.33 36.8434C118.64 36.6554 118.795 36.3827 118.795 36.0254C118.795 35.7903 118.73 35.6022 118.598 35.4612C118.476 35.3201 118.25 35.1932 117.921 35.0804C117.601 34.9675 117.159 34.85 116.595 34.7278C116.031 34.5961 115.584 34.4363 115.255 34.2482C114.926 34.0507 114.691 33.8204 114.55 33.5571C114.409 33.2844 114.338 32.9788 114.338 32.6403C114.338 32.2924 114.442 31.9586 114.649 31.6389C114.856 31.3098 115.156 31.0418 115.551 30.8349C115.956 30.6281 116.459 30.5246 117.061 30.5246C117.549 30.5246 117.968 30.5857 118.316 30.708C118.664 30.8302 118.951 30.9854 119.176 31.1734C119.402 31.3521 119.571 31.5307 119.684 31.7094C119.797 31.8881 119.858 32.0385 119.867 32.1607C119.877 32.2548 119.848 32.3347 119.783 32.4005C119.717 32.4569 119.642 32.4851 119.557 32.4851H118.965C118.899 32.4851 118.842 32.471 118.795 32.4428C118.758 32.4146 118.72 32.3817 118.683 32.3441C118.588 32.2219 118.476 32.0996 118.344 31.9774C118.222 31.8551 118.057 31.7564 117.85 31.6812C117.653 31.5966 117.39 31.5543 117.061 31.5543C116.59 31.5543 116.238 31.653 116.003 31.8504C115.768 32.0479 115.65 32.2971 115.65 32.598C115.65 32.7766 115.702 32.9365 115.805 33.0775C115.909 33.2186 116.106 33.3455 116.398 33.4584C116.689 33.5712 117.122 33.6934 117.695 33.8251C118.316 33.9473 118.805 34.1119 119.162 34.3187C119.519 34.5256 119.773 34.7654 119.924 35.0381C120.074 35.3107 120.149 35.6257 120.149 35.9831C120.149 36.378 120.032 36.74 119.797 37.0691C119.571 37.3982 119.233 37.6615 118.781 37.859C118.339 38.047 117.789 38.141 117.131 38.141ZM124.518 38.141C123.917 38.141 123.404 38.0094 122.981 37.7461C122.567 37.4734 122.252 37.0973 122.036 36.6178C121.82 36.1382 121.712 35.5881 121.712 34.9675V30.9901C121.712 30.896 121.74 30.8208 121.796 30.7644C121.862 30.6986 121.942 30.6657 122.036 30.6657H122.741C122.835 30.6657 122.911 30.6986 122.967 30.7644C123.033 30.8208 123.066 30.896 123.066 30.9901V34.897C123.066 36.2981 123.677 36.9986 124.899 36.9986C125.482 36.9986 125.948 36.8152 126.296 36.4485C126.653 36.0724 126.832 35.5552 126.832 34.897V30.9901C126.832 30.896 126.86 30.8208 126.916 30.7644C126.982 30.6986 127.062 30.6657 127.156 30.6657H127.847C127.951 30.6657 128.03 30.6986 128.087 30.7644C128.143 30.8208 128.172 30.896 128.172 30.9901V37.6756C128.172 37.7696 128.143 37.8496 128.087 37.9154C128.03 37.9718 127.951 38 127.847 38H127.198C127.104 38 127.024 37.9718 126.959 37.9154C126.902 37.8496 126.874 37.7696 126.874 37.6756V37.055C126.62 37.3841 126.31 37.6474 125.943 37.8449C125.586 38.0423 125.111 38.141 124.518 38.141ZM130.591 38C130.497 38 130.417 37.9718 130.352 37.9154C130.295 37.8496 130.267 37.7696 130.267 37.6756V31.0042C130.267 30.9101 130.295 30.8302 130.352 30.7644C130.417 30.6986 130.497 30.6657 130.591 30.6657H131.24C131.334 30.6657 131.414 30.6986 131.48 30.7644C131.546 30.8302 131.579 30.9101 131.579 31.0042V31.6248C131.767 31.3051 132.025 31.0653 132.354 30.9054C132.683 30.7456 133.078 30.6657 133.539 30.6657H134.103C134.197 30.6657 134.273 30.6986 134.329 30.7644C134.385 30.8208 134.414 30.896 134.414 30.9901V31.5684C134.414 31.6624 134.385 31.7376 134.329 31.794C134.273 31.8504 134.197 31.8787 134.103 31.8787H133.257C132.749 31.8787 132.35 32.0291 132.058 32.33C131.767 32.6215 131.621 33.0211 131.621 33.5289V37.6756C131.621 37.7696 131.588 37.8496 131.522 37.9154C131.456 37.9718 131.376 38 131.282 38H130.591ZM137.56 38.141C137.09 38.141 136.662 38.047 136.276 37.859C135.891 37.6709 135.581 37.417 135.346 37.0973C135.11 36.7776 134.993 36.4156 134.993 36.0113C134.993 35.3625 135.256 34.8453 135.783 34.4598C136.309 34.0743 136.996 33.8204 137.842 33.6981L139.944 33.4019V32.9929C139.944 32.5416 139.812 32.189 139.549 31.9351C139.295 31.6812 138.876 31.5543 138.293 31.5543C137.87 31.5543 137.527 31.6389 137.264 31.8081C137.01 31.9774 136.831 32.1937 136.728 32.4569C136.671 32.598 136.573 32.6685 136.432 32.6685H135.797C135.693 32.6685 135.614 32.6403 135.557 32.5839C135.51 32.5181 135.487 32.4428 135.487 32.3582C135.487 32.2172 135.538 32.0432 135.642 31.8363C135.755 31.6295 135.924 31.4273 136.149 31.2299C136.375 31.0324 136.662 30.8678 137.01 30.7362C137.367 30.5951 137.8 30.5246 138.307 30.5246C138.872 30.5246 139.346 30.5999 139.732 30.7503C140.118 30.8913 140.418 31.0841 140.635 31.3286C140.86 31.5731 141.02 31.8504 141.114 32.1607C141.218 32.471 141.269 32.786 141.269 33.1057V37.6756C141.269 37.7696 141.236 37.8496 141.171 37.9154C141.114 37.9718 141.039 38 140.945 38H140.296C140.193 38 140.113 37.9718 140.056 37.9154C140 37.8496 139.972 37.7696 139.972 37.6756V37.0691C139.85 37.2384 139.685 37.4076 139.478 37.5769C139.271 37.7367 139.013 37.8731 138.702 37.9859C138.392 38.0893 138.011 38.141 137.56 38.141ZM137.856 37.0832C138.242 37.0832 138.594 37.0033 138.914 36.8434C139.234 36.6742 139.483 36.4156 139.661 36.0677C139.85 35.7198 139.944 35.2825 139.944 34.756V34.361L138.307 34.6008C137.64 34.6949 137.137 34.8547 136.798 35.0804C136.46 35.2966 136.291 35.574 136.291 35.9125C136.291 36.1758 136.366 36.3968 136.516 36.5754C136.676 36.7447 136.874 36.8716 137.109 36.9563C137.353 37.0409 137.602 37.0832 137.856 37.0832ZM146.091 38C145.565 38 145.137 37.9013 144.808 37.7038C144.479 37.4969 144.239 37.2101 144.089 36.8434C143.938 36.4673 143.863 36.0254 143.863 35.5176V31.794H142.763C142.669 31.794 142.589 31.7658 142.523 31.7094C142.467 31.6436 142.438 31.5637 142.438 31.4696V30.9901C142.438 30.896 142.467 30.8208 142.523 30.7644C142.589 30.6986 142.669 30.6657 142.763 30.6657H143.863V28.3102C143.863 28.2162 143.891 28.141 143.947 28.0846C144.013 28.0187 144.093 27.9858 144.187 27.9858H144.85C144.944 27.9858 145.019 28.0187 145.076 28.0846C145.142 28.141 145.175 28.2162 145.175 28.3102V30.6657H146.924C147.018 30.6657 147.093 30.6986 147.149 30.7644C147.215 30.8208 147.248 30.896 147.248 30.9901V31.4696C147.248 31.5637 147.215 31.6436 147.149 31.7094C147.093 31.7658 147.018 31.794 146.924 31.794H145.175V35.4189C145.175 35.8608 145.25 36.2087 145.4 36.4626C145.551 36.7165 145.819 36.8434 146.204 36.8434H147.065C147.159 36.8434 147.234 36.8763 147.29 36.9422C147.356 36.9986 147.389 37.0738 147.389 37.1678V37.6756C147.389 37.7696 147.356 37.8496 147.29 37.9154C147.234 37.9718 147.159 38 147.065 38H146.091ZM150.783 38.141C150.313 38.141 149.885 38.047 149.499 37.859C149.114 37.6709 148.804 37.417 148.568 37.0973C148.333 36.7776 148.216 36.4156 148.216 36.0113C148.216 35.3625 148.479 34.8453 149.006 34.4598C149.532 34.0743 150.219 33.8204 151.065 33.6981L153.167 33.4019V32.9929C153.167 32.5416 153.035 32.189 152.772 31.9351C152.518 31.6812 152.099 31.5543 151.516 31.5543C151.093 31.5543 150.75 31.6389 150.487 31.8081C150.233 31.9774 150.054 32.1937 149.951 32.4569C149.894 32.598 149.796 32.6685 149.655 32.6685H149.02C148.916 32.6685 148.836 32.6403 148.78 32.5839C148.733 32.5181 148.71 32.4428 148.71 32.3582C148.71 32.2172 148.761 32.0432 148.865 31.8363C148.978 31.6295 149.147 31.4273 149.372 31.2299C149.598 31.0324 149.885 30.8678 150.233 30.7362C150.59 30.5951 151.023 30.5246 151.53 30.5246C152.095 30.5246 152.569 30.5999 152.955 30.7503C153.34 30.8913 153.641 31.0841 153.858 31.3286C154.083 31.5731 154.243 31.8504 154.337 32.1607C154.441 32.471 154.492 32.786 154.492 33.1057V37.6756C154.492 37.7696 154.459 37.8496 154.394 37.9154C154.337 37.9718 154.262 38 154.168 38H153.519C153.416 38 153.336 37.9718 153.279 37.9154C153.223 37.8496 153.195 37.7696 153.195 37.6756V37.0691C153.072 37.2384 152.908 37.4076 152.701 37.5769C152.494 37.7367 152.236 37.8731 151.925 37.9859C151.615 38.0893 151.234 38.141 150.783 38.141ZM151.079 37.0832C151.465 37.0832 151.817 37.0033 152.137 36.8434C152.457 36.6742 152.706 36.4156 152.884 36.0677C153.073 35.7198 153.167 35.2825 153.167 34.756V34.361L151.53 34.6008C150.863 34.6949 150.36 34.8547 150.021 35.0804C149.683 35.2966 149.513 35.574 149.513 35.9125C149.513 36.1758 149.589 36.3968 149.739 36.5754C149.899 36.7447 150.096 36.8716 150.332 36.9563C150.576 37.0409 150.825 37.0832 151.079 37.0832ZM156.844 38C156.75 38 156.67 37.9718 156.605 37.9154C156.548 37.8496 156.52 37.7696 156.52 37.6756V30.9901C156.52 30.896 156.548 30.8208 156.605 30.7644C156.67 30.6986 156.75 30.6657 156.844 30.6657H157.507C157.601 30.6657 157.677 30.6986 157.733 30.7644C157.799 30.8208 157.832 30.896 157.832 30.9901V31.6107C158.076 31.291 158.382 31.0324 158.748 30.8349C159.125 30.6281 159.604 30.5246 160.187 30.5246C160.798 30.5246 161.316 30.661 161.739 30.9337C162.171 31.1969 162.496 31.5684 162.712 32.0479C162.928 32.5181 163.036 33.0681 163.036 33.6981V37.6756C163.036 37.7696 163.008 37.8496 162.952 37.9154C162.895 37.9718 162.82 38 162.726 38H162.021C161.927 38 161.847 37.9718 161.781 37.9154C161.725 37.8496 161.696 37.7696 161.696 37.6756V33.7687C161.696 33.1104 161.536 32.598 161.217 32.2313C160.897 31.8551 160.427 31.6671 159.806 31.6671C159.223 31.6671 158.753 31.8551 158.396 32.2313C158.048 32.598 157.874 33.1104 157.874 33.7687V37.6756C157.874 37.7696 157.841 37.8496 157.775 37.9154C157.719 37.9718 157.644 38 157.55 38H156.844Z" fill="#292D32"/>
<defs>
<linearGradient id="paint0_linear_164836_22447" x1="5.51316" y1="6.16451" x2="23.4983" y2="34.661" gradientUnits="userSpaceOnUse">
<stop stop-color="#067936"/>
<stop offset="1" stop-color="#32A651"/>
</linearGradient>
<linearGradient id="paint1_linear_164836_22447" x1="28.1436" y1="30.8139" x2="28.0743" y2="17.1312" gradientUnits="userSpaceOnUse">
<stop stop-color="#E58905"/>
<stop offset="1" stop-color="#FFC700"/>
</linearGradient>
<linearGradient id="paint2_linear_164836_22447" x1="35.7845" y1="32.7571" x2="51.7622" y2="8.31555" gradientUnits="userSpaceOnUse">
<stop offset="0.38" stop-color="#067936"/>
<stop offset="0.41" stop-color="#087C37"/>
<stop offset="0.79" stop-color="#269A4A"/>
<stop offset="1" stop-color="#32A651"/>
</linearGradient>
<linearGradient id="paint3_linear_164836_22447" x1="36.0436" y1="38.9013" x2="46.0251" y2="22.5658" gradientUnits="userSpaceOnUse">
<stop stop-color="#E58905"/>
<stop offset="1" stop-color="#FFC700"/>
</linearGradient>
</defs>
</svg>
