<svg width="165" height="50" viewBox="0 0 165 50" fill="none" xmlns="http://www.w3.org/2000/svg">
<path d="M23.649 21.3447H35.0751C40.5611 21.3447 49.4175 24.273 49.4175 33.4043H26.8402L23.6371 21.3447H23.649Z" fill="url(#paint0_linear_164836_22448)"/>
<path d="M4 5.54435L14.697 28.1814C16.2029 31.3725 19.418 33.4044 22.9439 33.4044H39.4137C30.4377 33.4044 23.159 15.7394 20.8045 11.0422C17.4101 4.30134 9.76084 2.2456 4 5.54435Z" fill="url(#paint1_linear_164836_22448)"/>
<path d="M38.2184 11.9153C38.2184 15.7399 35.1229 18.8355 31.2982 18.8355C27.4736 18.8355 24.3781 15.7399 24.3781 11.9153C24.3781 8.09067 27.4736 4.99512 31.2982 4.99512C35.1229 4.99512 38.2184 8.09067 38.2184 11.9153Z" fill="url(#paint2_linear_164836_22448)"/>
<path d="M62.7668 23C62.6056 23 62.4686 22.9436 62.3558 22.8307C62.2429 22.7179 62.1865 22.5809 62.1865 22.4197V6.6791C62.1865 6.50179 62.2429 6.35672 62.3558 6.24388C62.4686 6.13104 62.6056 6.07463 62.7668 6.07463H68.6665C70.2946 6.07463 71.6325 6.32448 72.6802 6.82418C73.7441 7.32388 74.542 8.06537 75.074 9.04866C75.622 10.0319 75.9041 11.2328 75.9202 12.6513C75.9525 13.3606 75.9686 13.9893 75.9686 14.5373C75.9686 15.0854 75.9525 15.706 75.9202 16.3991C75.888 17.8982 75.614 19.1394 75.0982 20.1227C74.5823 21.0899 73.8005 21.8152 72.7528 22.2988C71.7211 22.7663 70.3994 23 68.7874 23H62.7668ZM65.5474 20.2194H68.6665C69.5692 20.2194 70.3026 20.0904 70.8668 19.8325C71.431 19.5746 71.842 19.1636 72.0999 18.5994C72.374 18.0191 72.5191 17.2615 72.5352 16.3266C72.5513 15.843 72.5594 15.4239 72.5594 15.0693C72.5755 14.6985 72.5755 14.3358 72.5594 13.9812C72.5594 13.6104 72.5513 13.1913 72.5352 12.7239C72.5029 11.4021 72.1725 10.4269 71.5438 9.79821C70.9152 9.16955 69.9158 8.85522 68.5456 8.85522H65.5474V20.2194ZM79.7677 23C79.6066 23 79.4695 22.9436 79.3567 22.8307C79.2439 22.7179 79.1874 22.5809 79.1874 22.4197V6.65492C79.1874 6.49373 79.2439 6.35672 79.3567 6.24388C79.4695 6.13104 79.6066 6.07463 79.7677 6.07463H82.0406C82.2179 6.07463 82.3549 6.13104 82.4516 6.24388C82.5645 6.35672 82.6209 6.49373 82.6209 6.65492V22.4197C82.6209 22.5809 82.5645 22.7179 82.4516 22.8307C82.3549 22.9436 82.2179 23 82.0406 23H79.7677ZM92.9896 23.2418C91.5066 23.2418 90.2412 22.9839 89.1934 22.4681C88.1618 21.9522 87.3558 21.2107 86.7755 20.2436C86.2114 19.2603 85.9051 18.0916 85.8567 16.7376C85.8406 16.0445 85.8325 15.303 85.8325 14.5131C85.8325 13.7072 85.8406 12.9496 85.8567 12.2403C85.9051 10.9024 86.2114 9.75791 86.7755 8.80687C87.3558 7.85582 88.1699 7.12239 89.2176 6.60657C90.2815 6.09075 91.5388 5.83284 92.9896 5.83284C94.1663 5.83284 95.1979 5.99403 96.0845 6.31642C96.9711 6.62269 97.7045 7.02567 98.2848 7.52537C98.8812 8.00896 99.3245 8.53284 99.6146 9.09701C99.9209 9.66119 100.082 10.1851 100.098 10.6687C100.114 10.8137 100.074 10.9346 99.9773 11.0313C99.8806 11.1281 99.7517 11.1764 99.5905 11.1764H97.1C96.9388 11.1764 96.8179 11.1442 96.7373 11.0797C96.6567 11.0152 96.5842 10.9185 96.5197 10.7896C96.3908 10.451 96.1893 10.1206 95.9152 9.79821C95.6412 9.4597 95.2705 9.17761 94.803 8.95194C94.3355 8.72627 93.7311 8.61343 92.9896 8.61343C91.8934 8.61343 91.0149 8.90358 90.354 9.48388C89.7093 10.0642 89.3627 11.0233 89.3143 12.3612C89.266 13.7636 89.266 15.1821 89.3143 16.6167C89.3627 17.9869 89.7173 18.9701 90.3782 19.5666C91.0552 20.163 91.9418 20.4612 93.0379 20.4612C93.7633 20.4612 94.4081 20.3322 94.9722 20.0743C95.5525 19.8164 96.0039 19.4134 96.3263 18.8654C96.6648 18.3173 96.834 17.6161 96.834 16.7618V16.0122H93.8842C93.723 16.0122 93.586 15.9558 93.4731 15.843C93.3603 15.7301 93.3039 15.5851 93.3039 15.4078V14.1263C93.3039 13.949 93.3603 13.8039 93.4731 13.691C93.586 13.5782 93.723 13.5218 93.8842 13.5218H99.663C99.8403 13.5218 99.9773 13.5782 100.074 13.691C100.187 13.8039 100.243 13.949 100.243 14.1263V16.6651C100.243 18.0191 99.9451 19.1878 99.3487 20.171C98.7684 21.1543 97.9302 21.9119 96.834 22.4439C95.754 22.9758 94.4725 23.2418 92.9896 23.2418ZM103.923 23C103.762 23 103.625 22.9436 103.512 22.8307C103.399 22.7179 103.343 22.5809 103.343 22.4197V6.6791C103.343 6.50179 103.399 6.35672 103.512 6.24388C103.625 6.13104 103.762 6.07463 103.923 6.07463H109.823C111.451 6.07463 112.789 6.32448 113.837 6.82418C114.901 7.32388 115.698 8.06537 116.23 9.04866C116.778 10.0319 117.061 11.2328 117.077 12.6513C117.109 13.3606 117.125 13.9893 117.125 14.5373C117.125 15.0854 117.109 15.706 117.077 16.3991C117.044 17.8982 116.77 19.1394 116.255 20.1227C115.739 21.0899 114.957 21.8152 113.909 22.2988C112.878 22.7663 111.556 23 109.944 23H103.923ZM106.704 20.2194H109.823C110.726 20.2194 111.459 20.0904 112.023 19.8325C112.587 19.5746 112.998 19.1636 113.256 18.5994C113.53 18.0191 113.675 17.2615 113.692 16.3266C113.708 15.843 113.716 15.4239 113.716 15.0693C113.732 14.6985 113.732 14.3358 113.716 13.9812C113.716 13.6104 113.708 13.1913 113.692 12.7239C113.659 11.4021 113.329 10.4269 112.7 9.79821C112.072 9.16955 111.072 8.85522 109.702 8.85522H106.704V20.2194ZM118.974 23C118.845 23 118.724 22.9516 118.611 22.8549C118.514 22.7582 118.466 22.6373 118.466 22.4922C118.466 22.4278 118.482 22.3552 118.514 22.2746L124.341 6.6791C124.39 6.51791 124.478 6.38089 124.607 6.26806C124.752 6.1391 124.946 6.07463 125.188 6.07463H127.823C128.065 6.07463 128.25 6.1391 128.379 6.26806C128.508 6.38089 128.605 6.51791 128.669 6.6791L134.497 22.2746C134.513 22.3552 134.521 22.4278 134.521 22.4922C134.521 22.6373 134.472 22.7582 134.376 22.8549C134.279 22.9516 134.166 23 134.037 23H131.934C131.708 23 131.539 22.9516 131.426 22.8549C131.329 22.7421 131.265 22.6373 131.232 22.5406L130.096 19.5907H122.915L121.778 22.5406C121.746 22.6373 121.674 22.7421 121.561 22.8549C121.464 22.9516 121.303 23 121.077 23H118.974ZM123.761 16.8101H129.25L126.493 9.33881L123.761 16.8101ZM139.966 23C139.804 23 139.667 22.9436 139.555 22.8307C139.442 22.7179 139.385 22.5809 139.385 22.4197V16.9552L133.679 6.84836C133.663 6.81612 133.647 6.77582 133.631 6.72746C133.615 6.6791 133.606 6.63075 133.606 6.58239C133.606 6.43731 133.655 6.31642 133.752 6.2197C133.848 6.12298 133.961 6.07463 134.09 6.07463H136.242C136.435 6.07463 136.589 6.12298 136.701 6.2197C136.83 6.31642 136.919 6.42119 136.967 6.53403L141.078 13.5701L145.164 6.53403C145.229 6.42119 145.317 6.31642 145.43 6.2197C145.559 6.12298 145.72 6.07463 145.914 6.07463H148.041C148.186 6.07463 148.307 6.12298 148.404 6.2197C148.501 6.31642 148.549 6.43731 148.549 6.58239C148.549 6.63075 148.541 6.6791 148.525 6.72746C148.525 6.77582 148.509 6.81612 148.477 6.84836L142.77 16.9552V22.4197C142.77 22.5809 142.714 22.7179 142.601 22.8307C142.488 22.9436 142.343 23 142.166 23H139.966ZM148.111 23C147.982 23 147.861 22.9516 147.749 22.8549C147.652 22.7582 147.604 22.6373 147.604 22.4922C147.604 22.4278 147.62 22.3552 147.652 22.2746L153.479 6.6791C153.527 6.51791 153.616 6.38089 153.745 6.26806C153.89 6.1391 154.084 6.07463 154.325 6.07463H156.961C157.203 6.07463 157.388 6.1391 157.517 6.26806C157.646 6.38089 157.743 6.51791 157.807 6.6791L163.634 22.2746C163.65 22.3552 163.658 22.4278 163.658 22.4922C163.658 22.6373 163.61 22.7582 163.513 22.8549C163.417 22.9516 163.304 23 163.175 23H161.071C160.846 23 160.676 22.9516 160.564 22.8549C160.467 22.7421 160.402 22.6373 160.37 22.5406L159.234 19.5907H152.053L150.916 22.5406C150.884 22.6373 150.811 22.7421 150.698 22.8549C150.602 22.9516 150.441 23 150.215 23H148.111ZM152.899 16.8101H158.387L155.631 9.33881L152.899 16.8101Z" fill="#292D32"/>
<path d="M70.5276 38C70.4242 38 70.3443 37.9718 70.2879 37.9154C70.2314 37.8496 70.2032 37.7696 70.2032 37.6756V28.4654C70.2032 28.3619 70.2314 28.282 70.2879 28.2256C70.3443 28.1598 70.4242 28.1269 70.5276 28.1269H71.2329C71.3363 28.1269 71.4162 28.1598 71.4726 28.2256C71.5385 28.282 71.5714 28.3619 71.5714 28.4654V31.9633L75.3373 28.3525C75.3749 28.3149 75.436 28.2679 75.5206 28.2115C75.6147 28.1551 75.7369 28.1269 75.8873 28.1269H76.649C76.7242 28.1269 76.79 28.1551 76.8464 28.2115C76.9029 28.2679 76.9311 28.3337 76.9311 28.409C76.9311 28.4842 76.9123 28.5453 76.8746 28.5923L72.5164 32.8519L77.1567 37.5204C77.2038 37.5769 77.2273 37.6427 77.2273 37.7179C77.2273 37.7931 77.1991 37.859 77.1426 37.9154C77.0862 37.9718 77.0204 38 76.9452 38H76.1553C75.9955 38 75.8732 37.9718 75.7886 37.9154C75.704 37.8496 75.6429 37.8025 75.6052 37.7743L71.5714 33.7969V37.6756C71.5714 37.7696 71.5385 37.8496 71.4726 37.9154C71.4162 37.9718 71.3363 38 71.2329 38H70.5276ZM80.9835 38.141C80.015 38.141 79.2439 37.8449 78.6703 37.2525C78.0967 36.6507 77.7817 35.8326 77.7253 34.7983C77.7159 34.676 77.7112 34.5209 77.7112 34.3328C77.7112 34.1354 77.7159 33.9755 77.7253 33.8533C77.7629 33.1857 77.9181 32.6027 78.1908 32.1043C78.4635 31.5966 78.8349 31.2063 79.305 30.9337C79.7846 30.661 80.3441 30.5246 80.9835 30.5246C81.6981 30.5246 82.2952 30.6751 82.7747 30.976C83.2637 31.2769 83.6351 31.7047 83.889 32.2595C84.1429 32.8143 84.2698 33.4631 84.2698 34.2059V34.4457C84.2698 34.5491 84.2369 34.629 84.1711 34.6854C84.1147 34.7419 84.0394 34.7701 83.9454 34.7701H79.0653C79.0653 34.7795 79.0653 34.7983 79.0653 34.8265C79.0653 34.8547 79.0653 34.8782 79.0653 34.897C79.0841 35.2825 79.1687 35.6446 79.3191 35.9831C79.4696 36.3122 79.6858 36.5801 79.9679 36.787C80.25 36.9939 80.5885 37.0973 80.9835 37.0973C81.322 37.0973 81.6041 37.0456 81.8297 36.9422C82.0554 36.8387 82.2388 36.7259 82.3798 36.6037C82.5208 36.472 82.6149 36.3733 82.6619 36.3075C82.7465 36.1852 82.8123 36.1147 82.8594 36.0959C82.9064 36.0677 82.9816 36.0536 83.085 36.0536H83.762C83.8561 36.0536 83.9313 36.0818 83.9877 36.1382C84.0535 36.1852 84.0817 36.2557 84.0723 36.3498C84.0629 36.4908 83.9877 36.6648 83.8467 36.8716C83.7056 37.0691 83.5035 37.2666 83.2402 37.464C82.9769 37.6615 82.6572 37.826 82.2811 37.9577C81.905 38.0799 81.4724 38.141 80.9835 38.141ZM79.0653 33.7969H82.9299V33.7546C82.9299 33.3314 82.85 32.9553 82.6901 32.6262C82.5397 32.2971 82.3187 32.0385 82.0272 31.8504C81.7357 31.653 81.3878 31.5543 80.9835 31.5543C80.5791 31.5543 80.2312 31.653 79.9397 31.8504C79.6576 32.0385 79.4414 32.2971 79.2909 32.6262C79.1405 32.9553 79.0653 33.3314 79.0653 33.7546V33.7969ZM86.2948 40.6799C86.2008 40.6799 86.1208 40.6469 86.055 40.5811C85.9986 40.5247 85.9704 40.4495 85.9704 40.3554V30.9901C85.9704 30.896 85.9986 30.8208 86.055 30.7644C86.1208 30.6986 86.2008 30.6657 86.2948 30.6657H86.9436C87.0376 30.6657 87.1128 30.6986 87.1693 30.7644C87.2351 30.8208 87.268 30.896 87.268 30.9901V31.6107C87.4937 31.3004 87.7946 31.0418 88.1707 30.8349C88.5468 30.6281 89.017 30.5246 89.5811 30.5246C90.1077 30.5246 90.5543 30.614 90.9211 30.7926C91.2972 30.9713 91.6028 31.2157 91.8378 31.526C92.0823 31.8363 92.2657 32.189 92.3879 32.5839C92.5102 32.9788 92.576 33.4019 92.5854 33.8533C92.5948 34.0037 92.5995 34.1636 92.5995 34.3328C92.5995 34.5021 92.5948 34.6619 92.5854 34.8124C92.576 35.2543 92.5102 35.6775 92.3879 36.0818C92.2657 36.4767 92.0823 36.8293 91.8378 37.1396C91.6028 37.4405 91.2972 37.685 90.9211 37.8731C90.5543 38.0517 90.1077 38.141 89.5811 38.141C89.0358 38.141 88.575 38.0423 88.1989 37.8449C87.8322 37.638 87.5313 37.3841 87.2962 37.0832V40.3554C87.2962 40.4495 87.268 40.5247 87.2116 40.5811C87.1552 40.6469 87.0752 40.6799 86.9718 40.6799H86.2948ZM89.2849 36.9986C89.7739 36.9986 90.1547 36.8951 90.4274 36.6883C90.7095 36.472 90.9117 36.1946 91.0339 35.8561C91.1561 35.5082 91.2267 35.1368 91.2455 34.7419C91.2549 34.4692 91.2549 34.1965 91.2455 33.9238C91.2267 33.5289 91.1561 33.1622 91.0339 32.8237C90.9117 32.4757 90.7095 32.1984 90.4274 31.9915C90.1547 31.7752 89.7739 31.6671 89.2849 31.6671C88.8242 31.6671 88.4481 31.7752 88.1566 31.9915C87.8745 32.2078 87.6629 32.4851 87.5219 32.8237C87.3902 33.1528 87.315 33.4913 87.2962 33.8392C87.2868 33.9896 87.2821 34.1683 87.2821 34.3751C87.2821 34.582 87.2868 34.7654 87.2962 34.9252C87.3056 35.2543 87.3808 35.5787 87.5219 35.8984C87.6723 36.2181 87.8933 36.4814 88.1848 36.6883C88.4763 36.8951 88.843 36.9986 89.2849 36.9986ZM97.278 38.141C96.3095 38.141 95.5384 37.8449 94.9649 37.2525C94.3913 36.6507 94.0763 35.8326 94.0199 34.7983C94.0104 34.676 94.0057 34.5209 94.0057 34.3328C94.0057 34.1354 94.0104 33.9755 94.0199 33.8533C94.0575 33.1857 94.2126 32.6027 94.4853 32.1043C94.758 31.5966 95.1294 31.2063 95.5996 30.9337C96.0791 30.661 96.6386 30.5246 97.278 30.5246C97.9926 30.5246 98.5897 30.6751 99.0693 30.976C99.5582 31.2769 99.9296 31.7047 100.184 32.2595C100.437 32.8143 100.564 33.4631 100.564 34.2059V34.4457C100.564 34.5491 100.531 34.629 100.466 34.6854C100.409 34.7419 100.334 34.7701 100.24 34.7701H95.3598C95.3598 34.7795 95.3598 34.7983 95.3598 34.8265C95.3598 34.8547 95.3598 34.8782 95.3598 34.897C95.3786 35.2825 95.4632 35.6446 95.6137 35.9831C95.7641 36.3122 95.9804 36.5801 96.2625 36.787C96.5446 36.9939 96.8831 37.0973 97.278 37.0973C97.6165 37.0973 97.8986 37.0456 98.1243 36.9422C98.3499 36.8387 98.5333 36.7259 98.6743 36.6037C98.8154 36.472 98.9094 36.3733 98.9564 36.3075C99.041 36.1852 99.1069 36.1147 99.1539 36.0959C99.2009 36.0677 99.2761 36.0536 99.3796 36.0536H100.057C100.151 36.0536 100.226 36.0818 100.282 36.1382C100.348 36.1852 100.376 36.2557 100.367 36.3498C100.357 36.4908 100.282 36.6648 100.141 36.8716C100 37.0691 99.798 37.2666 99.5347 37.464C99.2714 37.6615 98.9517 37.826 98.5756 37.9577C98.1995 38.0799 97.7669 38.141 97.278 38.141ZM95.3598 33.7969H99.2244V33.7546C99.2244 33.3314 99.1445 32.9553 98.9846 32.6262C98.8342 32.2971 98.6132 32.0385 98.3217 31.8504C98.0302 31.653 97.6823 31.5543 97.278 31.5543C96.8737 31.5543 96.5257 31.653 96.2343 31.8504C95.9522 32.0385 95.7359 32.2971 95.5854 32.6262C95.435 32.9553 95.3598 33.3314 95.3598 33.7546V33.7969ZM102.575 38C102.481 38 102.401 37.9718 102.335 37.9154C102.279 37.8496 102.251 37.7696 102.251 37.6756V30.9901C102.251 30.896 102.279 30.8208 102.335 30.7644C102.401 30.6986 102.481 30.6657 102.575 30.6657H103.238C103.332 30.6657 103.407 30.6986 103.464 30.7644C103.53 30.8208 103.563 30.896 103.563 30.9901V31.6107C103.807 31.291 104.113 31.0324 104.479 30.8349C104.855 30.6281 105.335 30.5246 105.918 30.5246C106.529 30.5246 107.046 30.661 107.469 30.9337C107.902 31.1969 108.226 31.5684 108.443 32.0479C108.659 32.5181 108.767 33.0681 108.767 33.6981V37.6756C108.767 37.7696 108.739 37.8496 108.682 37.9154C108.626 37.9718 108.551 38 108.457 38H107.752C107.658 38 107.578 37.9718 107.512 37.9154C107.455 37.8496 107.427 37.7696 107.427 37.6756V33.7687C107.427 33.1104 107.267 32.598 106.948 32.2313C106.628 31.8551 106.158 31.6671 105.537 31.6671C104.954 31.6671 104.484 31.8551 104.127 32.2313C103.779 32.598 103.605 33.1104 103.605 33.7687V37.6756C103.605 37.7696 103.572 37.8496 103.506 37.9154C103.45 37.9718 103.374 38 103.28 38H102.575ZM113.809 41.103C113.169 41.103 112.643 41.0184 112.229 40.8491C111.825 40.6799 111.505 40.473 111.27 40.2285C111.044 39.9934 110.88 39.7537 110.776 39.5092C110.682 39.2741 110.63 39.086 110.621 38.945C110.612 38.851 110.64 38.771 110.706 38.7052C110.781 38.6394 110.861 38.6065 110.945 38.6065H111.622C111.707 38.6065 111.778 38.6253 111.834 38.6629C111.89 38.7005 111.937 38.7804 111.975 38.9027C112.031 39.0437 112.116 39.1989 112.229 39.3681C112.342 39.5468 112.516 39.6972 112.751 39.8195C112.986 39.9511 113.315 40.0169 113.738 40.0169C114.18 40.0169 114.551 39.9558 114.852 39.8336C115.153 39.7207 115.379 39.5139 115.529 39.213C115.689 38.9215 115.769 38.5172 115.769 38V37.0409C115.544 37.3324 115.247 37.5769 114.881 37.7743C114.514 37.9624 114.053 38.0564 113.498 38.0564C112.972 38.0564 112.52 37.9671 112.144 37.7884C111.768 37.6004 111.458 37.3512 111.213 37.0409C110.978 36.7212 110.8 36.3592 110.677 35.9549C110.565 35.5505 110.499 35.1274 110.48 34.6854C110.471 34.4222 110.471 34.1636 110.48 33.9097C110.499 33.4678 110.565 33.0446 110.677 32.6403C110.8 32.236 110.978 31.874 111.213 31.5543C111.458 31.2346 111.768 30.9854 112.144 30.8067C112.52 30.6187 112.972 30.5246 113.498 30.5246C114.063 30.5246 114.528 30.6328 114.895 30.849C115.271 31.0559 115.576 31.3098 115.811 31.6107V31.0042C115.811 30.9101 115.84 30.8302 115.896 30.7644C115.962 30.6986 116.042 30.6657 116.136 30.6657H116.785C116.879 30.6657 116.959 30.6986 117.024 30.7644C117.09 30.8302 117.123 30.9101 117.123 31.0042V37.8449C117.123 38.4749 117.015 39.0343 116.799 39.5233C116.592 40.0122 116.244 40.3978 115.755 40.6799C115.276 40.9619 114.627 41.103 113.809 41.103ZM113.78 36.9281C114.251 36.9281 114.627 36.8199 114.909 36.6037C115.2 36.3874 115.412 36.1147 115.544 35.7856C115.685 35.4565 115.76 35.1227 115.769 34.7842C115.779 34.6525 115.783 34.4927 115.783 34.3046C115.783 34.1072 115.779 33.9426 115.769 33.811C115.76 33.4725 115.685 33.1387 115.544 32.8096C115.412 32.4804 115.2 32.2078 114.909 31.9915C114.627 31.7752 114.251 31.6671 113.78 31.6671C113.31 31.6671 112.934 31.7752 112.652 31.9915C112.37 32.1984 112.168 32.4757 112.046 32.8237C111.923 33.1622 111.853 33.5289 111.834 33.9238C111.825 34.1683 111.825 34.4175 111.834 34.6713C111.853 35.0663 111.923 35.4377 112.046 35.7856C112.168 36.1241 112.37 36.4015 112.652 36.6178C112.934 36.8246 113.31 36.9281 113.78 36.9281ZM121.957 38.141C121.355 38.141 120.842 38.0094 120.419 37.7461C120.005 37.4734 119.69 37.0973 119.474 36.6178C119.258 36.1382 119.15 35.5881 119.15 34.9675V30.9901C119.15 30.896 119.178 30.8208 119.234 30.7644C119.3 30.6986 119.38 30.6657 119.474 30.6657H120.179C120.273 30.6657 120.349 30.6986 120.405 30.7644C120.471 30.8208 120.504 30.896 120.504 30.9901V34.897C120.504 36.2981 121.115 36.9986 122.337 36.9986C122.92 36.9986 123.386 36.8152 123.734 36.4485C124.091 36.0724 124.27 35.5552 124.27 34.897V30.9901C124.27 30.896 124.298 30.8208 124.354 30.7644C124.42 30.6986 124.5 30.6657 124.594 30.6657H125.285C125.389 30.6657 125.469 30.6986 125.525 30.7644C125.581 30.8208 125.61 30.896 125.61 30.9901V37.6756C125.61 37.7696 125.581 37.8496 125.525 37.9154C125.469 37.9718 125.389 38 125.285 38H124.636C124.542 38 124.462 37.9718 124.397 37.9154C124.34 37.8496 124.312 37.7696 124.312 37.6756V37.055C124.058 37.3841 123.748 37.6474 123.381 37.8449C123.024 38.0423 122.549 38.141 121.957 38.141ZM128.029 38C127.935 38 127.855 37.9718 127.79 37.9154C127.733 37.8496 127.705 37.7696 127.705 37.6756V31.0042C127.705 30.9101 127.733 30.8302 127.79 30.7644C127.855 30.6986 127.935 30.6657 128.029 30.6657H128.678C128.772 30.6657 128.852 30.6986 128.918 30.7644C128.984 30.8302 129.017 30.9101 129.017 31.0042V31.6248C129.205 31.3051 129.463 31.0653 129.792 30.9054C130.122 30.7456 130.516 30.6657 130.977 30.6657H131.541C131.635 30.6657 131.711 30.6986 131.767 30.7644C131.823 30.8208 131.852 30.896 131.852 30.9901V31.5684C131.852 31.6624 131.823 31.7376 131.767 31.794C131.711 31.8504 131.635 31.8787 131.541 31.8787H130.695C130.187 31.8787 129.788 32.0291 129.496 32.33C129.205 32.6215 129.059 33.0211 129.059 33.5289V37.6756C129.059 37.7696 129.026 37.8496 128.96 37.9154C128.894 37.9718 128.815 38 128.721 38H128.029ZM135.799 38.141C135.198 38.141 134.685 38.0094 134.262 37.7461C133.848 37.4734 133.533 37.0973 133.317 36.6178C133.101 36.1382 132.993 35.5881 132.993 34.9675V30.9901C132.993 30.896 133.021 30.8208 133.077 30.7644C133.143 30.6986 133.223 30.6657 133.317 30.6657H134.022C134.116 30.6657 134.191 30.6986 134.248 30.7644C134.314 30.8208 134.347 30.896 134.347 30.9901V34.897C134.347 36.2981 134.958 36.9986 136.18 36.9986C136.763 36.9986 137.229 36.8152 137.576 36.4485C137.934 36.0724 138.112 35.5552 138.112 34.897V30.9901C138.112 30.896 138.141 30.8208 138.197 30.7644C138.263 30.6986 138.343 30.6657 138.437 30.6657H139.128C139.231 30.6657 139.311 30.6986 139.368 30.7644C139.424 30.8208 139.452 30.896 139.452 30.9901V37.6756C139.452 37.7696 139.424 37.8496 139.368 37.9154C139.311 37.9718 139.231 38 139.128 38H138.479C138.385 38 138.305 37.9718 138.239 37.9154C138.183 37.8496 138.155 37.7696 138.155 37.6756V37.055C137.901 37.3841 137.591 37.6474 137.224 37.8449C136.867 38.0423 136.392 38.141 135.799 38.141ZM144.087 38.141C143.56 38.141 143.109 38.0752 142.733 37.9436C142.356 37.8119 142.051 37.6521 141.816 37.464C141.581 37.276 141.402 37.0879 141.28 36.8999C141.167 36.7118 141.106 36.5613 141.096 36.4485C141.087 36.3451 141.12 36.2651 141.195 36.2087C141.27 36.1523 141.346 36.1241 141.421 36.1241H142.041C142.098 36.1241 142.14 36.1335 142.168 36.1523C142.206 36.1617 142.253 36.1993 142.309 36.2651C142.432 36.3968 142.568 36.5284 142.718 36.6601C142.869 36.7917 143.052 36.8999 143.268 36.9845C143.494 37.0691 143.772 37.1114 144.101 37.1114C144.58 37.1114 144.975 37.0221 145.285 36.8434C145.596 36.6554 145.751 36.3827 145.751 36.0254C145.751 35.7903 145.685 35.6022 145.553 35.4612C145.431 35.3201 145.206 35.1932 144.876 35.0804C144.557 34.9675 144.115 34.85 143.551 34.7278C142.986 34.5961 142.54 34.4363 142.211 34.2482C141.882 34.0507 141.646 33.8204 141.505 33.5571C141.364 33.2844 141.294 32.9788 141.294 32.6403C141.294 32.2924 141.397 31.9586 141.604 31.6389C141.811 31.3098 142.112 31.0418 142.507 30.8349C142.911 30.6281 143.414 30.5246 144.016 30.5246C144.505 30.5246 144.923 30.5857 145.271 30.708C145.619 30.8302 145.906 30.9854 146.132 31.1734C146.357 31.3521 146.527 31.5307 146.639 31.7094C146.752 31.8881 146.813 32.0385 146.823 32.1607C146.832 32.2548 146.804 32.3347 146.738 32.4005C146.672 32.4569 146.597 32.4851 146.513 32.4851H145.92C145.854 32.4851 145.798 32.471 145.751 32.4428C145.713 32.4146 145.676 32.3817 145.638 32.3441C145.544 32.2219 145.431 32.0996 145.3 31.9774C145.177 31.8551 145.013 31.7564 144.806 31.6812C144.608 31.5966 144.345 31.5543 144.016 31.5543C143.546 31.5543 143.193 31.653 142.958 31.8504C142.723 32.0479 142.606 32.2971 142.606 32.598C142.606 32.7766 142.657 32.9365 142.761 33.0775C142.864 33.2186 143.062 33.3455 143.353 33.4584C143.645 33.5712 144.077 33.6934 144.651 33.8251C145.271 33.9473 145.76 34.1119 146.118 34.3187C146.475 34.5256 146.729 34.7654 146.879 35.0381C147.03 35.3107 147.105 35.6257 147.105 35.9831C147.105 36.378 146.987 36.74 146.752 37.0691C146.527 37.3982 146.188 37.6615 145.737 37.859C145.295 38.047 144.745 38.141 144.087 38.141ZM150.783 38.141C150.313 38.141 149.885 38.047 149.499 37.859C149.114 37.6709 148.804 37.417 148.568 37.0973C148.333 36.7776 148.216 36.4156 148.216 36.0113C148.216 35.3625 148.479 34.8453 149.006 34.4598C149.532 34.0743 150.219 33.8204 151.065 33.6981L153.167 33.4019V32.9929C153.167 32.5416 153.035 32.189 152.772 31.9351C152.518 31.6812 152.099 31.5543 151.516 31.5543C151.093 31.5543 150.75 31.6389 150.487 31.8081C150.233 31.9774 150.054 32.1937 149.951 32.4569C149.894 32.598 149.796 32.6685 149.655 32.6685H149.02C148.916 32.6685 148.836 32.6403 148.78 32.5839C148.733 32.5181 148.71 32.4428 148.71 32.3582C148.71 32.2172 148.761 32.0432 148.865 31.8363C148.978 31.6295 149.147 31.4273 149.372 31.2299C149.598 31.0324 149.885 30.8678 150.233 30.7362C150.59 30.5951 151.023 30.5246 151.53 30.5246C152.095 30.5246 152.569 30.5999 152.955 30.7503C153.34 30.8913 153.641 31.0841 153.858 31.3286C154.083 31.5731 154.243 31.8504 154.337 32.1607C154.441 32.471 154.492 32.786 154.492 33.1057V37.6756C154.492 37.7696 154.459 37.8496 154.394 37.9154C154.337 37.9718 154.262 38 154.168 38H153.519C153.416 38 153.336 37.9718 153.279 37.9154C153.223 37.8496 153.195 37.7696 153.195 37.6756V37.0691C153.073 37.2384 152.908 37.4076 152.701 37.5769C152.494 37.7367 152.236 37.8731 151.925 37.9859C151.615 38.0893 151.234 38.141 150.783 38.141ZM151.079 37.0832C151.465 37.0832 151.817 37.0033 152.137 36.8434C152.457 36.6742 152.706 36.4156 152.884 36.0677C153.073 35.7198 153.167 35.2825 153.167 34.756V34.361L151.53 34.6008C150.863 34.6949 150.36 34.8547 150.021 35.0804C149.683 35.2966 149.513 35.574 149.513 35.9125C149.513 36.1758 149.589 36.3968 149.739 36.5754C149.899 36.7447 150.096 36.8716 150.332 36.9563C150.576 37.0409 150.825 37.0832 151.079 37.0832ZM156.844 38C156.75 38 156.67 37.9718 156.605 37.9154C156.548 37.8496 156.52 37.7696 156.52 37.6756V30.9901C156.52 30.896 156.548 30.8208 156.605 30.7644C156.67 30.6986 156.75 30.6657 156.844 30.6657H157.507C157.601 30.6657 157.677 30.6986 157.733 30.7644C157.799 30.8208 157.832 30.896 157.832 30.9901V31.6107C158.076 31.291 158.382 31.0324 158.748 30.8349C159.125 30.6281 159.604 30.5246 160.187 30.5246C160.798 30.5246 161.316 30.661 161.739 30.9337C162.171 31.1969 162.496 31.5684 162.712 32.0479C162.928 32.5181 163.036 33.0681 163.036 33.6981V37.6756C163.036 37.7696 163.008 37.8496 162.952 37.9154C162.895 37.9718 162.82 38 162.726 38H162.021C161.927 38 161.847 37.9718 161.781 37.9154C161.725 37.8496 161.696 37.7696 161.696 37.6756V33.7687C161.696 33.1104 161.536 32.598 161.217 32.2313C160.897 31.8551 160.427 31.6671 159.806 31.6671C159.223 31.6671 158.753 31.8551 158.396 32.2313C158.048 32.598 157.874 33.1104 157.874 33.7687V37.6756C157.874 37.7696 157.841 37.8496 157.775 37.9154C157.719 37.9718 157.644 38 157.55 38H156.844Z" fill="#292D32"/>
<defs>
<linearGradient id="paint0_linear_164836_22448" x1="30.4856" y1="31.982" x2="38.8997" y2="25.5877" gradientUnits="userSpaceOnUse">
<stop stop-color="#E58905"/>
<stop offset="1" stop-color="#FFC700"/>
</linearGradient>
<linearGradient id="paint1_linear_164836_22448" x1="12.4261" y1="2.56831" x2="25.7645" y2="28.3487" gradientUnits="userSpaceOnUse">
<stop stop-color="#067936"/>
<stop offset="1" stop-color="#32A651"/>
</linearGradient>
<linearGradient id="paint2_linear_164836_22448" x1="24.3661" y1="11.9273" x2="38.2065" y2="11.9273" gradientUnits="userSpaceOnUse">
<stop stop-color="#E58905"/>
<stop offset="1" stop-color="#FFC700"/>
</linearGradient>
</defs>
</svg>
