<svg width="179" height="48" viewBox="0 0 179 48" fill="none" xmlns="http://www.w3.org/2000/svg">
<path d="M26.9442 24.2875C24.994 24.065 23.4627 22.5468 23.2141 20.5967C23.2141 20.5967 23.7768 26.4994 24.0386 28.5019C24.091 28.8945 24.1433 29.2872 24.1826 29.6798C24.5752 32.8733 24.9548 36.0276 27.0096 38.2264C29.9152 41.3283 34.784 41.4853 37.8858 38.5798C40.9877 35.6742 41.1448 30.8054 38.2392 27.7035C35.3337 24.6016 30.6219 24.7194 26.9311 24.3006L26.9442 24.2875Z" fill="url(#paint0_linear_164814_15835)"/>
<path d="M24.1826 29.6797C23.9993 28.3971 22.9915 27.4547 21.6958 27.3369C17.0626 26.9312 7.91404 27.2191 3.25467 22.2587C-0.828823 17.8873 -0.606325 11.0291 3.7651 6.93256C8.13653 2.83598 14.9947 3.05848 19.0913 7.42991C22.756 11.3433 22.9654 17.9658 23.5412 23.2534C23.7507 25.125 24.1826 29.6666 24.1826 29.6666V29.6797Z" fill="url(#paint1_linear_164814_15835)"/>
<path style="mix-blend-mode:multiply" opacity="0.2" d="M21.8398 27.3501C23.057 27.5202 24.0124 28.4364 24.1826 29.6667C24.1826 29.6667 23.7507 25.1251 23.5413 23.2535C23.3711 21.7484 23.2402 20.1386 23.0439 18.5156C23.2141 21.4866 22.5204 24.8634 21.8398 27.3501Z" fill="url(#paint2_linear_164814_15835)"/>
<path d="M7.71773 36.9698C7.74391 40.9748 11.0028 44.2075 15.0078 44.1944C19.0128 44.1683 22.2455 40.9093 22.2324 36.9044C22.2063 32.8994 18.9473 29.6666 14.9424 29.6797C10.9374 29.7059 7.70464 32.9648 7.71773 36.9698Z" fill="url(#paint3_linear_164814_15835)"/>
<path d="M25.8186 14.6807C25.8448 18.6857 29.1037 21.9185 33.1087 21.9054C37.1136 21.8792 40.3464 18.6203 40.3333 14.6153C40.3071 10.6103 37.0482 7.37758 33.0432 7.39066C29.0383 7.41684 25.8055 10.6758 25.8186 14.6807Z" fill="url(#paint4_linear_164814_15835)"/>
<path d="M51.9182 25.0141C51.7587 25.0141 51.6258 24.9609 51.5061 24.8413C51.3865 24.7217 51.3333 24.5887 51.3333 24.4292V8.86378C51.3333 8.69098 51.3865 8.54477 51.5061 8.43843C51.6125 8.33209 51.7587 8.26562 51.9182 8.26562H57.7536C59.362 8.26562 60.6912 8.51818 61.7413 9.01C62.7914 9.50182 63.5757 10.2329 64.1074 11.2165C64.6391 12.1869 64.9182 13.3832 64.9315 14.7789C64.9581 15.4834 64.9847 16.1082 64.9847 16.6399C64.9847 17.1716 64.9714 17.7963 64.9315 18.4875C64.9049 19.9763 64.6258 21.1992 64.1207 22.1562C63.6156 23.1266 62.8446 23.8444 61.8078 24.3096C60.7843 24.7748 59.4683 25.0141 57.8732 25.0141H51.9182ZM54.6697 22.2626H57.7536C58.6442 22.2626 59.3753 22.1296 59.9335 21.8771C60.4918 21.6245 60.9039 21.2125 61.1697 20.6409C61.4356 20.0693 61.5685 19.3249 61.5818 18.4078C61.5951 17.9292 61.6084 17.5039 61.6217 17.145C61.6217 16.7861 61.6217 16.4272 61.6217 16.0683C61.6217 15.7094 61.5951 15.2973 61.5818 14.8321C61.5552 13.5294 61.2229 12.5591 60.5982 11.9343C59.9734 11.3096 58.9898 11.0039 57.634 11.0039H54.6697V22.2626Z" fill="white"/>
<path d="M69.3313 25.0147C69.1718 25.0147 69.0389 24.9615 68.9192 24.8419C68.7996 24.7223 68.7464 24.5893 68.7464 24.4298V8.8378C68.7464 8.67829 68.7996 8.54536 68.9192 8.42573C69.0256 8.31939 69.1718 8.25293 69.3313 8.25293H71.5777C71.7505 8.25293 71.8967 8.3061 71.9898 8.42573C72.0961 8.53207 72.1493 8.67829 72.1493 8.8378V24.4298C72.1493 24.5893 72.0961 24.7223 71.9898 24.8419C71.8834 24.9615 71.7505 25.0147 71.5777 25.0147H69.3313Z" fill="white"/>
<path d="M83.0225 25.2536C81.5603 25.2536 80.3109 25.001 79.2741 24.4826C78.2505 23.9775 77.453 23.2331 76.8814 22.2628C76.3098 21.2924 76.0041 20.1493 75.9642 18.8068C75.9509 18.1155 75.9377 17.3845 75.9377 16.5869C75.9377 15.7894 75.9376 15.045 75.9642 14.3538C76.0174 13.0245 76.3231 11.8947 76.8814 10.9509C77.4397 10.0072 78.2505 9.28937 79.3006 8.77096C80.3507 8.26585 81.5869 8 83.0225 8C84.1923 8 85.2025 8.15951 86.0798 8.46524C86.9571 8.77096 87.6882 9.16973 88.273 9.66155C88.8579 10.1534 89.2965 10.6718 89.589 11.2301C89.8814 11.7883 90.0409 12.3067 90.0542 12.7853C90.0675 12.9315 90.0276 13.0511 89.9346 13.1442C89.8415 13.2372 89.7086 13.2904 89.5491 13.2904H87.09C86.9305 13.2904 86.8109 13.2638 86.7311 13.1973C86.6513 13.1309 86.5849 13.0378 86.5184 12.9049C86.3855 12.5726 86.1861 12.2403 85.9203 11.908C85.6544 11.5757 85.2822 11.3098 84.817 11.0838C84.3518 10.8579 83.7536 10.7515 83.0225 10.7515C81.9325 10.7515 81.0685 11.044 80.4305 11.6155C79.7792 12.1871 79.4336 13.1442 79.3937 14.4601C79.3405 15.8425 79.3405 17.2515 79.3937 18.6738C79.4469 20.0297 79.7925 21 80.4571 21.5982C81.1217 22.183 81.9857 22.4888 83.0757 22.4888C83.7935 22.4888 84.4315 22.3558 85.0031 22.1033C85.5747 21.8507 86.0133 21.4519 86.3456 20.907C86.6779 20.362 86.8374 19.6708 86.8374 18.82V18.0757H83.9131C83.7536 18.0757 83.6207 18.0225 83.501 17.9029C83.3947 17.7965 83.3282 17.6503 83.3282 17.4775V16.2147C83.3282 16.0419 83.3814 15.8957 83.501 15.7894C83.6207 15.683 83.7536 15.6166 83.9131 15.6166H89.6289C89.8017 15.6166 89.9479 15.6697 90.0542 15.7894C90.1606 15.8957 90.2137 16.0419 90.2137 16.2147V18.727C90.2137 20.0695 89.9213 21.226 89.3364 22.1963C88.7516 23.1667 87.9274 23.9243 86.8507 24.4427C85.7741 24.9744 84.498 25.227 83.0358 25.227L83.0225 25.2536Z" fill="white"/>
<path d="M94.4274 25.0141C94.2679 25.0141 94.135 24.9609 94.0153 24.8413C93.8957 24.7217 93.8425 24.5887 93.8425 24.4292V8.86378C93.8425 8.69098 93.8957 8.54477 94.0153 8.43843C94.1217 8.33209 94.2679 8.26562 94.4274 8.26562H100.263C101.871 8.26562 103.2 8.51818 104.251 9.01C105.301 9.50182 106.085 10.2329 106.617 11.2165C107.148 12.1869 107.427 13.3832 107.441 14.7789C107.467 15.4834 107.494 16.1082 107.494 16.6399C107.494 17.1716 107.481 17.7963 107.441 18.4875C107.414 19.9763 107.135 21.1992 106.63 22.1562C106.125 23.1266 105.354 23.8444 104.317 24.3096C103.293 24.7748 101.978 25.0141 100.382 25.0141H94.4274ZM97.1789 22.2626H100.263C101.153 22.2626 101.884 22.1296 102.443 21.8771C103.001 21.6245 103.413 21.2125 103.679 20.6409C103.945 20.0693 104.078 19.3249 104.104 18.4078C104.118 17.9292 104.131 17.5039 104.144 17.145C104.144 16.7861 104.144 16.4272 104.144 16.0683C104.144 15.7094 104.131 15.2973 104.104 14.8321C104.078 13.5294 103.745 12.5591 103.121 11.9343C102.496 11.3096 101.512 11.0039 100.156 11.0039H97.1922V22.2626H97.1789Z" fill="white"/>
<path d="M109.913 25.0141C109.78 25.0141 109.674 24.9609 109.568 24.8679C109.461 24.7748 109.408 24.6552 109.408 24.509C109.408 24.4425 109.421 24.3761 109.461 24.2963L115.23 8.86378C115.283 8.70428 115.363 8.57135 115.509 8.45172C115.642 8.33209 115.828 8.26562 116.068 8.26562H118.673C118.912 8.26562 119.098 8.31879 119.218 8.45172C119.351 8.57135 119.444 8.70428 119.51 8.86378L125.279 24.2963C125.292 24.3761 125.306 24.4425 125.306 24.509C125.306 24.6552 125.253 24.7748 125.16 24.8679C125.066 24.9609 124.947 25.0141 124.827 25.0141H122.74C122.514 25.0141 122.355 24.9609 122.248 24.8546C122.142 24.7482 122.076 24.6552 122.049 24.5622L120.919 21.6378H113.808L112.678 24.5622C112.651 24.6552 112.572 24.7615 112.479 24.8546C112.372 24.9609 112.213 25.0141 111.987 25.0141H109.9H109.913ZM114.645 18.8863H120.082L117.357 11.4957L114.659 18.8863H114.645Z" fill="white"/>
<path d="M131.274 25.0147C131.115 25.0147 130.982 24.9615 130.862 24.8419C130.742 24.7223 130.689 24.5893 130.689 24.4298V19.0198L125.04 9.02389C125.04 9.02389 125.013 8.95743 124.987 8.90426C124.96 8.85109 124.96 8.81121 124.96 8.75804C124.96 8.61183 125.013 8.49219 125.106 8.39915C125.199 8.3061 125.319 8.25293 125.439 8.25293H127.565C127.752 8.25293 127.911 8.3061 128.031 8.39915C128.15 8.49219 128.23 8.59853 128.283 8.70487L132.351 15.6701L136.392 8.70487C136.458 8.59853 136.551 8.49219 136.671 8.39915C136.79 8.3061 136.95 8.25293 137.136 8.25293H139.236C139.382 8.25293 139.502 8.3061 139.595 8.39915C139.688 8.49219 139.741 8.61183 139.741 8.75804C139.741 8.81121 139.741 8.85109 139.741 8.90426C139.741 8.95743 139.715 8.99731 139.688 9.02389L134.039 19.0198V24.4298C134.039 24.5893 133.986 24.7223 133.866 24.8419C133.76 24.9482 133.614 25.0147 133.441 25.0147H131.261H131.274Z" fill="white"/>
<path d="M139.941 25.0141C139.808 25.0141 139.701 24.9609 139.595 24.8679C139.489 24.7748 139.436 24.6552 139.436 24.509C139.436 24.4425 139.449 24.3761 139.489 24.2963L145.258 8.86378C145.311 8.70428 145.391 8.57135 145.537 8.45172C145.67 8.33209 145.856 8.26562 146.095 8.26562H148.7C148.94 8.26562 149.126 8.31879 149.245 8.45172C149.378 8.57135 149.471 8.70428 149.538 8.86378L155.307 24.2963C155.32 24.3761 155.333 24.4425 155.333 24.509C155.333 24.6552 155.28 24.7748 155.187 24.8679C155.094 24.9609 154.974 25.0141 154.855 25.0141H152.768C152.542 25.0141 152.382 24.9609 152.276 24.8546C152.17 24.7482 152.103 24.6552 152.077 24.5622L150.947 21.6378H143.835L142.706 24.5622C142.679 24.6552 142.599 24.7615 142.506 24.8546C142.4 24.9609 142.24 25.0141 142.014 25.0141H139.927H139.941ZM144.673 18.8863H150.109L147.384 11.4957L144.686 18.8863H144.673Z" fill="white"/>
<path d="M80.9985 41.0692C80.8879 41.0692 80.8018 41.0324 80.7527 40.9709C80.6912 40.9095 80.6667 40.8235 80.6667 40.7252V31.0907C80.6667 30.9801 80.6912 30.8941 80.7527 30.8327C80.8141 30.7712 80.9002 30.7344 80.9985 30.7344H84.341C85.3487 30.7344 86.172 30.8818 86.7865 31.1891C87.4009 31.4963 87.8556 31.9387 88.1383 32.5408C88.4209 33.1307 88.5684 33.868 88.5806 34.7282C88.5806 35.1706 88.5929 35.5639 88.5929 35.8957C88.5929 36.2275 88.5929 36.6084 88.5806 37.0508C88.5561 37.9602 88.4086 38.7098 88.126 39.2997C87.8433 39.8895 87.4009 40.3319 86.7988 40.6268C86.1966 40.9218 85.3979 41.057 84.4025 41.057H80.9862L80.9985 41.0692ZM82.1045 39.8158H84.341C85.0169 39.8158 85.5576 39.7175 85.9631 39.5331C86.3687 39.3488 86.6636 39.0416 86.8356 38.6361C87.02 38.2182 87.1183 37.6775 87.1183 37.0017C87.1429 36.7067 87.1429 36.4487 87.1429 36.2275V35.5639C87.1429 35.3427 87.1429 35.0846 87.1183 34.802C87.0937 33.8434 86.8725 33.143 86.4424 32.6883C86.0123 32.2336 85.2873 32.0001 84.255 32.0001H82.0922V39.8158H82.1045Z" fill="white"/>
<path d="M93.1398 41.217C92.6483 41.217 92.2059 41.1187 91.8003 40.9221C91.3948 40.7255 91.0753 40.4551 90.8295 40.1233C90.5837 39.7915 90.4608 39.4106 90.4608 38.9928C90.4608 38.3169 90.7312 37.7762 91.2842 37.3707C91.8372 36.9651 92.5499 36.7071 93.4347 36.5719L95.6344 36.2647V35.8346C95.6344 35.3676 95.4993 34.9989 95.2289 34.7286C94.9585 34.4582 94.5162 34.3353 93.914 34.3353C93.4716 34.3353 93.1152 34.4213 92.8449 34.6057C92.5745 34.7777 92.3902 35.0112 92.2796 35.2816C92.2181 35.429 92.1198 35.5028 91.9724 35.5028H91.3088C91.1982 35.5028 91.1244 35.4659 91.063 35.4044C91.0138 35.343 90.977 35.2693 90.977 35.171C90.977 35.0235 91.0384 34.8392 91.149 34.6303C91.2596 34.4091 91.4317 34.2001 91.6774 33.9912C91.9109 33.7823 92.2181 33.6103 92.5868 33.4628C92.9555 33.3154 93.4102 33.2539 93.9386 33.2539C94.5284 33.2539 95.02 33.3276 95.4255 33.4874C95.831 33.6349 96.1506 33.8438 96.3718 34.1018C96.6052 34.3599 96.765 34.6425 96.8756 34.9743C96.9739 35.2938 97.0353 35.6256 97.0353 35.9574V40.7378C97.0353 40.8361 96.9985 40.9221 96.937 40.9836C96.8756 41.045 96.7896 41.0819 96.6913 41.0819H96.0154C95.9048 41.0819 95.8188 41.045 95.7696 40.9836C95.7082 40.9221 95.6836 40.8361 95.6836 40.7378V40.0988C95.5607 40.2708 95.3887 40.4551 95.1675 40.6272C94.9463 40.7992 94.6759 40.9467 94.3564 41.0573C94.0369 41.1679 93.6314 41.2293 93.1644 41.2293L93.1398 41.217ZM93.447 40.111C93.8526 40.111 94.2212 40.025 94.553 39.853C94.8848 39.6809 95.1552 39.4106 95.3395 39.0542C95.5361 38.6856 95.6221 38.2309 95.6221 37.6779V37.2601L93.914 37.5058C93.2135 37.6041 92.6851 37.7639 92.341 37.9974C91.9847 38.2309 91.8126 38.5258 91.8126 38.8699C91.8126 39.1402 91.8986 39.3737 92.0584 39.5581C92.2181 39.7424 92.4271 39.8776 92.6728 39.9636C92.9186 40.0496 93.1767 40.0988 93.447 40.0988V40.111Z" fill="white"/>
<path d="M102.16 41.2163C101.607 41.2163 101.14 41.1426 100.747 41.0074C100.353 40.8722 100.034 40.7002 99.788 40.5036C99.5423 40.3069 99.3579 40.1103 99.235 39.9137C99.1121 39.7171 99.0507 39.5573 99.0384 39.4467C99.0384 39.3361 99.063 39.2501 99.1367 39.2009C99.2105 39.1395 99.2965 39.1149 99.3702 39.1149H100.022C100.022 39.1149 100.132 39.1149 100.157 39.1395C100.194 39.1518 100.243 39.2009 100.292 39.2624C100.415 39.3976 100.562 39.5327 100.722 39.6802C100.882 39.8154 101.078 39.926 101.3 40.0243C101.533 40.1103 101.816 40.1595 102.16 40.1595C102.664 40.1595 103.069 40.0612 103.401 39.8768C103.72 39.6802 103.892 39.3976 103.892 39.0289C103.892 38.7831 103.831 38.5865 103.696 38.439C103.561 38.2916 103.327 38.1564 102.983 38.0458C102.639 37.9229 102.184 37.8 101.594 37.6771C101.005 37.542 100.538 37.3699 100.194 37.1733C99.8495 36.9767 99.6037 36.7309 99.4562 36.4483C99.3088 36.1656 99.235 35.8461 99.235 35.502C99.235 35.1579 99.3456 34.7893 99.5545 34.4452C99.7635 34.1011 100.083 33.8307 100.501 33.6095C100.919 33.3883 101.447 33.29 102.074 33.29C102.59 33.29 103.02 33.3515 103.389 33.4867C103.757 33.6218 104.052 33.7693 104.286 33.9659C104.519 34.1625 104.704 34.3469 104.814 34.5312C104.937 34.7155 104.998 34.8753 105.011 34.9982C105.011 35.0965 104.986 35.1825 104.925 35.244C104.851 35.3054 104.777 35.3423 104.691 35.3423H104.077C104.003 35.3423 103.954 35.33 103.905 35.2931C103.856 35.2562 103.819 35.2317 103.782 35.1948C103.684 35.0719 103.573 34.9367 103.438 34.8138C103.303 34.691 103.131 34.5804 102.922 34.4943C102.713 34.4083 102.43 34.3715 102.086 34.3715C101.594 34.3715 101.226 34.4698 100.98 34.6787C100.734 34.8876 100.611 35.1456 100.611 35.4652C100.611 35.6495 100.661 35.8215 100.771 35.969C100.882 36.1165 101.091 36.2516 101.386 36.3622C101.693 36.4851 102.147 36.608 102.737 36.7432C103.389 36.8661 103.892 37.0381 104.273 37.2593C104.642 37.4805 104.912 37.7263 105.072 38.0089C105.232 38.2916 105.306 38.6234 105.306 38.992C105.306 39.4099 105.183 39.7785 104.949 40.1226C104.704 40.4667 104.359 40.737 103.892 40.946C103.426 41.1549 102.848 41.2532 102.16 41.2532V41.2163Z" fill="white"/>
<path d="M107.751 41.0692C107.653 41.0692 107.567 41.0324 107.505 40.9709C107.444 40.9095 107.407 40.8235 107.407 40.7252V30.931C107.407 30.8327 107.444 30.7467 107.505 30.6852C107.567 30.6238 107.653 30.5869 107.751 30.5869H108.488C108.599 30.5869 108.685 30.6238 108.734 30.6852C108.783 30.7467 108.82 30.8327 108.82 30.931V34.3719C109.091 34.0401 109.41 33.7697 109.791 33.5608C110.172 33.3519 110.664 33.2536 111.253 33.2536C111.892 33.2536 112.433 33.3888 112.888 33.6714C113.343 33.954 113.674 34.335 113.908 34.8388C114.141 35.3304 114.252 35.908 114.252 36.5716V40.7252C114.252 40.8235 114.227 40.9095 114.166 40.9709C114.104 41.0324 114.018 41.0692 113.92 41.0692H113.183C113.084 41.0692 112.998 41.0324 112.937 40.9709C112.876 40.9095 112.839 40.8235 112.839 40.7252V36.6453C112.839 35.9571 112.667 35.4164 112.335 35.0355C112.003 34.6422 111.512 34.4579 110.86 34.4579C110.246 34.4579 109.754 34.6545 109.386 35.0355C109.017 35.4287 108.82 35.9571 108.82 36.6453V40.7252C108.82 40.8235 108.796 40.9095 108.734 40.9709C108.673 41.0324 108.587 41.0692 108.488 41.0692H107.751Z" fill="white"/>
<path d="M120.544 41.2167C119.954 41.2167 119.462 41.1061 119.069 40.8972C118.676 40.6883 118.356 40.4179 118.123 40.1107V40.7252C118.123 40.8235 118.086 40.9095 118.025 40.9709C117.963 41.0324 117.877 41.0692 117.779 41.0692H117.103C117.005 41.0692 116.919 41.0324 116.857 40.9709C116.796 40.9095 116.759 40.8235 116.759 40.7252V30.931C116.759 30.8327 116.796 30.7467 116.857 30.6852C116.919 30.6238 117.005 30.5869 117.103 30.5869H117.816C117.926 30.5869 118.012 30.6238 118.061 30.6852C118.111 30.7467 118.147 30.8327 118.147 30.931V34.3227C118.393 34.0155 118.713 33.7574 119.094 33.5608C119.475 33.3642 119.966 33.2536 120.531 33.2536C121.097 33.2536 121.551 33.3519 121.945 33.5362C122.338 33.7328 122.657 33.9909 122.903 34.3227C123.149 34.6545 123.346 35.0355 123.468 35.4533C123.591 35.8711 123.665 36.3135 123.677 36.7805C123.677 36.9402 123.69 37.0877 123.69 37.2229C123.69 37.358 123.69 37.5055 123.677 37.6653C123.677 38.1322 123.604 38.5869 123.468 39.0047C123.346 39.4226 123.149 39.8035 122.903 40.1353C122.657 40.4671 122.338 40.7252 121.945 40.9218C121.551 41.1184 121.084 41.2044 120.531 41.2044L120.544 41.2167ZM120.237 40.0247C120.753 40.0247 121.146 39.9141 121.441 39.6929C121.736 39.4717 121.945 39.1768 122.068 38.8204C122.19 38.464 122.264 38.0708 122.289 37.6653C122.289 37.3826 122.289 37.1 122.289 36.805C122.264 36.3872 122.19 36.0063 122.068 35.6499C121.945 35.2935 121.736 34.9986 121.441 34.7774C121.146 34.5562 120.753 34.4456 120.237 34.4456C119.77 34.4456 119.389 34.5562 119.081 34.7651C118.774 34.9863 118.553 35.2567 118.393 35.5885C118.246 35.9202 118.16 36.2643 118.147 36.6084C118.147 36.7682 118.135 36.9525 118.135 37.1737C118.135 37.3949 118.135 37.5792 118.147 37.739C118.172 38.1077 118.246 38.464 118.393 38.8081C118.541 39.1522 118.762 39.4471 119.057 39.6683C119.352 39.8895 119.745 40.0124 120.224 40.0124L120.237 40.0247Z" fill="white"/>
<path d="M129.035 41.2166C128.286 41.2166 127.659 41.0692 127.167 40.7865C126.676 40.5039 126.283 40.1106 126.012 39.5945C125.742 39.0907 125.594 38.5131 125.57 37.8618C125.57 37.6898 125.558 37.4808 125.558 37.2228C125.558 36.9647 125.558 36.7558 125.57 36.5961C125.594 35.9325 125.754 35.3549 126.025 34.851C126.295 34.3472 126.676 33.954 127.18 33.6713C127.684 33.3887 128.298 33.2412 129.035 33.2412C129.773 33.2412 130.387 33.3887 130.891 33.6713C131.395 33.954 131.776 34.3472 132.046 34.851C132.316 35.3549 132.464 35.9325 132.501 36.5961C132.501 36.7558 132.513 36.9647 132.513 37.2228C132.513 37.4808 132.513 37.702 132.501 37.8618C132.476 38.5131 132.329 39.0907 132.058 39.5945C131.788 40.0984 131.407 40.4916 130.903 40.7865C130.399 41.0815 129.773 41.2166 129.035 41.2166ZM129.035 40.0861C129.65 40.0861 130.129 39.8894 130.498 39.5085C130.866 39.1275 131.063 38.55 131.088 37.8004C131.088 37.6529 131.1 37.4686 131.1 37.2351C131.1 37.0016 131.1 36.8172 131.088 36.6698C131.063 35.9202 130.866 35.3549 130.498 34.9616C130.129 34.5684 129.65 34.3841 129.035 34.3841C128.421 34.3841 127.942 34.5807 127.573 34.9616C127.204 35.3426 127.008 35.9202 126.995 36.6698C126.995 36.8172 126.983 37.0016 126.983 37.2351C126.983 37.4686 126.983 37.6529 126.995 37.8004C127.02 38.55 127.204 39.1153 127.573 39.5085C127.942 39.9017 128.433 40.0861 129.035 40.0861Z" fill="white"/>
<path d="M136.863 41.217C136.372 41.217 135.929 41.1187 135.524 40.9221C135.118 40.7255 134.799 40.4551 134.553 40.1233C134.307 39.7915 134.184 39.4106 134.184 38.9928C134.184 38.3169 134.455 37.7762 135.008 37.3707C135.561 36.9651 136.273 36.7071 137.158 36.5719L139.358 36.2647V35.8346C139.358 35.3676 139.223 34.9989 138.952 34.7286C138.682 34.4582 138.24 34.3353 137.637 34.3353C137.195 34.3353 136.839 34.4213 136.568 34.6057C136.298 34.79 136.114 35.0112 136.003 35.2816C135.942 35.429 135.843 35.5028 135.696 35.5028H135.032C134.922 35.5028 134.848 35.4659 134.786 35.4044C134.737 35.343 134.7 35.2693 134.7 35.171C134.7 35.0235 134.762 34.8392 134.872 34.6303C134.983 34.4091 135.155 34.2001 135.401 33.9912C135.634 33.7823 135.942 33.6103 136.31 33.4628C136.679 33.3154 137.134 33.2539 137.662 33.2539C138.252 33.2539 138.743 33.3276 139.149 33.4874C139.555 33.6471 139.874 33.8438 140.095 34.1018C140.329 34.3599 140.488 34.6425 140.599 34.9743C140.697 35.2938 140.759 35.6256 140.759 35.9574V40.7378C140.759 40.8361 140.722 40.9221 140.661 40.9836C140.599 41.045 140.513 41.0819 140.415 41.0819H139.739C139.628 41.0819 139.542 41.045 139.493 40.9836C139.432 40.9221 139.407 40.8361 139.407 40.7378V40.0988C139.284 40.2708 139.112 40.4551 138.891 40.6272C138.67 40.7992 138.399 40.9467 138.08 41.0573C137.76 41.1679 137.355 41.2293 136.888 41.2293L136.863 41.217ZM137.171 40.111C137.576 40.111 137.945 40.025 138.276 39.853C138.608 39.6809 138.879 39.4106 139.063 39.0542C139.247 38.6978 139.346 38.2309 139.346 37.6779V37.2601L137.637 37.5058C136.937 37.6041 136.409 37.7639 136.065 37.9974C135.708 38.2309 135.536 38.5258 135.536 38.8699C135.536 39.1402 135.622 39.3737 135.782 39.5581C135.942 39.7424 136.151 39.8776 136.396 39.9636C136.642 40.0496 136.9 40.0988 137.171 40.0988V40.111Z" fill="white"/>
<path d="M143.573 41.0696C143.475 41.0696 143.389 41.0327 143.327 40.9713C143.266 40.9098 143.229 40.8238 143.229 40.7255V33.7455C143.229 33.6471 143.266 33.5611 143.327 33.4997C143.389 33.4259 143.475 33.4014 143.573 33.4014H144.249C144.347 33.4014 144.433 33.4382 144.495 33.4997C144.568 33.5734 144.593 33.6471 144.593 33.7455V34.3968C144.79 34.065 145.06 33.8069 145.404 33.6471C145.748 33.4751 146.166 33.4014 146.645 33.4014H147.235C147.333 33.4014 147.407 33.4382 147.469 33.4997C147.53 33.5611 147.555 33.6471 147.555 33.7455V34.3476C147.555 34.4459 147.53 34.5196 147.469 34.5811C147.407 34.6425 147.333 34.6671 147.235 34.6671H146.35C145.822 34.6671 145.404 34.8269 145.097 35.1341C144.79 35.4413 144.642 35.8591 144.642 36.3998V40.7378C144.642 40.8361 144.605 40.9221 144.544 40.9835C144.47 41.045 144.396 41.0819 144.298 41.0819H143.573V41.0696Z" fill="white"/>
<path d="M151.843 41.2171C151.303 41.2171 150.836 41.1188 150.442 40.9345C150.049 40.7379 149.73 40.4798 149.472 40.148C149.214 39.8162 149.029 39.4475 148.906 39.0174C148.783 38.5996 148.71 38.1449 148.697 37.678C148.697 37.5182 148.685 37.3707 148.685 37.2356C148.685 37.1004 148.685 36.9529 148.697 36.7932C148.722 36.3262 148.783 35.8838 148.906 35.466C149.029 35.0482 149.214 34.6672 149.472 34.3354C149.73 34.0036 150.049 33.7332 150.442 33.5489C150.836 33.3523 151.303 33.2663 151.843 33.2663C152.421 33.2663 152.9 33.3646 153.293 33.5735C153.674 33.7824 153.994 34.0405 154.24 34.3354V30.9437C154.24 30.8454 154.277 30.7594 154.338 30.6979C154.399 30.6365 154.485 30.5996 154.584 30.5996H155.296C155.395 30.5996 155.481 30.6365 155.542 30.6979C155.604 30.7594 155.641 30.8454 155.641 30.9437V40.7379C155.641 40.8362 155.604 40.9222 155.542 40.9836C155.481 41.0451 155.395 41.0819 155.296 41.0819H154.633C154.522 41.0819 154.436 41.0451 154.387 40.9836C154.326 40.9222 154.301 40.8362 154.301 40.7379V40.1234C154.055 40.4429 153.736 40.701 153.343 40.9099C152.949 41.1188 152.458 41.2294 151.868 41.2294L151.843 41.2171ZM152.151 40.0251C152.642 40.0251 153.035 39.9145 153.33 39.681C153.625 39.4475 153.846 39.1649 153.994 38.8208C154.141 38.4767 154.215 38.1203 154.227 37.7517C154.227 37.5919 154.24 37.4076 154.24 37.1864C154.24 36.9652 154.24 36.7809 154.227 36.6211C154.227 36.277 154.141 35.9329 153.982 35.6011C153.834 35.2693 153.601 34.9867 153.306 34.7778C153.011 34.5566 152.618 34.4583 152.151 34.4583C151.647 34.4583 151.253 34.5689 150.959 34.7901C150.664 35.0113 150.455 35.3062 150.32 35.6626C150.197 36.019 150.123 36.4122 150.098 36.8177C150.098 37.1004 150.098 37.383 150.098 37.678C150.123 38.0958 150.197 38.4767 150.32 38.8331C150.442 39.1895 150.664 39.4844 150.959 39.7056C151.253 39.9268 151.647 40.0374 152.151 40.0374V40.0251Z" fill="white"/>
<defs>
<linearGradient id="paint0_linear_164814_15835" x1="28.0588" y1="39.5871" x2="32.9337" y2="23.5319" gradientUnits="userSpaceOnUse">
<stop stop-color="#E58905"/>
<stop offset="1" stop-color="#FFC700"/>
</linearGradient>
<linearGradient id="paint1_linear_164814_15835" x1="10.8259" y1="26.2024" x2="17.1686" y2="5.31308" gradientUnits="userSpaceOnUse">
<stop stop-color="#068238"/>
<stop offset="1" stop-color="#34A853"/>
</linearGradient>
<linearGradient id="paint2_linear_164814_15835" x1="22.1267" y1="29.0319" x2="25.1307" y2="19.1383" gradientUnits="userSpaceOnUse">
<stop stop-color="#017534"/>
<stop offset="1" stop-color="#34A853"/>
</linearGradient>
<linearGradient id="paint3_linear_164814_15835" x1="22.1988" y1="36.8042" x2="7.68424" y2="36.8777" gradientUnits="userSpaceOnUse">
<stop stop-color="#067936"/>
<stop offset="1" stop-color="#32A651"/>
</linearGradient>
<linearGradient id="paint4_linear_164814_15835" x1="40.2917" y1="14.5149" x2="25.7772" y2="14.5884" gradientUnits="userSpaceOnUse">
<stop stop-color="#E58905"/>
<stop offset="1" stop-color="#FFC700"/>
</linearGradient>
</defs>
</svg>
